  0
SECTION
  2
HEADER
  9
$ACADVER
  1
AC1009
  9
$DWGCODEPAGE
  3
ansi_1252
  9
$INSBASE
 10
0.0
 20
0.0
 30
0.0
  9
$EXTMIN
 10
-65.51007519813885
 20
-65.51007397388344
 30
0.0
  9
$EXTMAX
 10
65.51007519813889
 20
65.51007397388312
 30
0.0
  9
$LIMMIN
 10
0.0
 20
0.0
  9
$LIMMAX
 10
12.0
 20
9.0
  9
$ORTHOMODE
 70
     0
  9
$REGENMODE
 70
     1
  9
$FILLMODE
 70
     1
  9
$QTEXTMODE
 70
     0
  9
$MIRRTEXT
 70
     1
  9
$DRAGMODE
 70
     2
  9
$LTSCALE
 40
1.0
  9
$OSMODE
 70
    37
  9
$ATTMODE
 70
     1
  9
$TEXTSIZE
 40
0.2
  9
$TRACEWID
 40
0.05
  9
$TEXTSTYLE
  7
STANDARD
  9
$CLAYER
  8
LAYER_01
  9
$CELTYPE
  6
BYLAYER
  9
$CECOLOR
 62
   256
  9
$DIMSCALE
 40
1.0
  9
$DIMASZ
 40
0.18
  9
$DIMEXO
 40
0.0625
  9
$DIMDLI
 40
0.38
  9
$DIMRND
 40
0.0
  9
$DIMDLE
 40
0.0
  9
$DIMEXE
 40
0.18
  9
$DIMTP
 40
0.0
  9
$DIMTM
 40
0.0
  9
$DIMTXT
 40
0.18
  9
$DIMCEN
 40
0.09
  9
$DIMTSZ
 40
0.0
  9
$DIMTOL
 70
     0
  9
$DIMLIM
 70
     0
  9
$DIMTIH
 70
     1
  9
$DIMTOH
 70
     1
  9
$DIMSE1
 70
     0
  9
$DIMSE2
 70
     0
  9
$DIMTAD
 70
     0
  9
$DIMZIN
 70
     0
  9
$DIMBLK
  1

  9
$DIMASO
 70
     1
  9
$DIMSHO
 70
     1
  9
$DIMPOST
  1

  9
$DIMAPOST
  1

  9
$DIMALT
 70
     0
  9
$DIMALTD
 70
     2
  9
$DIMALTF
 40
25.4
  9
$DIMLFAC
 40
1.0
  9
$DIMTOFL
 70
     0
  9
$DIMTVP
 40
0.0
  9
$DIMTIX
 70
     0
  9
$DIMSOXD
 70
     0
  9
$DIMSAH
 70
     0
  9
$DIMBLK1
  1

  9
$DIMBLK2
  1

  9
$DIMSTYLE
  2
STANDARD
  9
$DIMCLRD
 70
     0
  9
$DIMCLRE
 70
     0
  9
$DIMCLRT
 70
     0
  9
$DIMTFAC
 40
1.0
  9
$DIMGAP
 40
0.09
  9
$LUNITS
 70
     2
  9
$LUPREC
 70
     3
  9
$SKETCHINC
 40
0.1
  9
$FILLETRAD
 40
0.5
  9
$AUNITS
 70
     0
  9
$AUPREC
 70
     0
  9
$MENU
  1
.
  9
$ELEVATION
 40
0.0
  9
$PELEVATION
 40
0.0
  9
$THICKNESS
 40
0.0
  9
$LIMCHECK
 70
     0
  9
$CHAMFERA
 40
0.0
  9
$CHAMFERB
 40
0.0
  9
$SKPOLY
 70
     0
  9
$TDCREATE
 40
2458904.471904155
  9
$TDUPDATE
 40
2458904.471918229
  9
$TDINDWG
 40
0.0000000116
  9
$TDUSRTIMER
 40
0.0000000116
  9
$USRTIMER
 70
     1
  9
$ANGBASE
 50
0.0
  9
$ANGDIR
 70
     0
  9
$PDMODE
 70
     0
  9
$PDSIZE
 40
0.0
  9
$PLINEWID
 40
0.0
  9
$COORDS
 70
     1
  9
$SPLFRAME
 70
     0
  9
$SPLINETYPE
 70
     6
  9
$SPLINESEGS
 70
     8
  9
$ATTDIA
 70
     0
  9
$ATTREQ
 70
     1
  9
$HANDLING
 70
     1
  9
$HANDSEED
  5
17F
  9
$SURFTAB1
 70
     6
  9
$SURFTAB2
 70
     6
  9
$SURFTYPE
 70
     6
  9
$SURFU
 70
     6
  9
$SURFV
 70
     6
  9
$UCSNAME
  2

  9
$UCSORG
 10
0.0
 20
0.0
 30
0.0
  9
$UCSXDIR
 10
1.0
 20
0.0
 30
0.0
  9
$UCSYDIR
 10
0.0
 20
1.0
 30
0.0
  9
$PUCSNAME
  2

  9
$PUCSORG
 10
0.0
 20
0.0
 30
0.0
  9
$PUCSXDIR
 10
1.0
 20
0.0
 30
0.0
  9
$PUCSYDIR
 10
0.0
 20
1.0
 30
0.0
  9
$USERI1
 70
     0
  9
$USERI2
 70
     0
  9
$USERI3
 70
     0
  9
$USERI4
 70
     0
  9
$USERI5
 70
     0
  9
$USERR1
 40
0.0
  9
$USERR2
 40
0.0
  9
$USERR3
 40
0.0
  9
$USERR4
 40
0.0
  9
$USERR5
 40
0.0
  9
$WORLDVIEW
 70
     1
  9
$SHADEDGE
 70
     3
  9
$SHADEDIF
 70
    70
  9
$TILEMODE
 70
     1
  9
$MAXACTVP
 70
    64
  9
$PLIMCHECK
 70
     0
  9
$PEXTMIN
 10
1.000000000000000E+20
 20
1.000000000000000E+20
 30
1.000000000000000E+20
  9
$PEXTMAX
 10
-1.000000000000000E+20
 20
-1.000000000000000E+20
 30
-1.000000000000000E+20
  9
$PLIMMIN
 10
0.0
 20
0.0
  9
$PLIMMAX
 10
12.0
 20
9.0
  9
$UNITMODE
 70
     0
  9
$VISRETAIN
 70
     1
  9
$PLINEGEN
 70
     0
  9
$PSLTSCALE
 70
     1
  0
ENDSEC
  0
SECTION
  2
TABLES
  0
TABLE
  2
VPORT
 70
     1
  0
VPORT
  2
*ACTIVE
 70
     0
 10
0.0
 20
0.0
 11
1.0
 21
1.0
 12
0.0
 22
0.0
 13
0.0
 23
0.0
 14
0.5
 24
0.5
 15
0.5
 25
0.5
 16
0.0
 26
0.0
 36
1.0
 17
0.0000000000000284
 27
-0.0000000000001563
 37
0.0
 40
133.6405509067219
 41
1.000000018688051
 42
50.0
 43
0.0
 44
0.0
 50
0.0
 51
0.0
 71
     0
 72
   100
 73
     1
 74
     3
 75
     0
 76
     0
 77
     0
 78
     0
  0
ENDTAB
  0
TABLE
  2
LTYPE
 70
     1
  0
LTYPE
  2
CONTINUOUS
 70
     0
  3
Solid line
 72
    65
 73
     0
 40
0.0
  0
ENDTAB
  0
TABLE
  2
LAYER
 70
     2
  0
LAYER
  2
0
 70
     0
 62
     7
  6
CONTINUOUS
  0
LAYER
  2
LAYER_01
 70
     0
 62
     7
  6
CONTINUOUS
  0
ENDTAB
  0
TABLE
  2
STYLE
 70
     1
  0
STYLE
  2
STANDARD
 70
     0
 40
0.0
 41
1.0
 50
0.0
 71
     0
 42
0.2
  3
txt
  4

  0
ENDTAB
  0
TABLE
  2
VIEW
 70
     0
  0
ENDTAB
  0
TABLE
  2
UCS
 70
     0
  0
ENDTAB
  0
TABLE
  2
APPID
 70
     1
  0
APPID
  2
ACAD
 70
     0
  0
ENDTAB
  0
TABLE
  2
DIMSTYLE
 70
     1
  0
DIMSTYLE
  2
STANDARD
 70
     0
  3

  4

  5

  6

  7

 40
1.0
 41
0.18
 42
0.0625
 43
0.38
 44
0.18
 45
0.0
 46
0.0
 47
0.0
 48
0.0
140
0.18
141
0.09
142
0.0
143
25.4
144
1.0
145
0.0
146
1.0
147
0.09
 71
     0
 72
     0
 73
     1
 74
     1
 75
     0
 76
     0
 77
     0
 78
     0
170
     0
171
     2
172
     0
173
     0
174
     0
175
     0
176
     0
177
     0
178
     0
  0
ENDTAB
  0
ENDSEC
  0
SECTION
  2
BLOCKS
  0
BLOCK
  8
0
  2
$MODEL_SPACE
 70
     0
 10
0.0
 20
0.0
 30
0.0
  3
$MODEL_SPACE
  1

  0
ENDBLK
  5
21
  8
0
  0
BLOCK
 67
     1
  8
0
  2
$PAPER_SPACE
 70
     0
 10
0.0
 20
0.0
 30
0.0
  3
$PAPER_SPACE
  1

  0
ENDBLK
  5
1D
 67
     1
  8
0
  0
ENDSEC
  0
SECTION
  2
ENTITIES
  0
POLYLINE
  5
6F
  8
LAYER_01
 66
     1
 10
0.0
 20
0.0
 30
0.0
 70
     1
  0
VERTEX
  5
70
  8
LAYER_01
 10
-64.80150744928049
 20
41.89751532655127
 30
0.0
  0
VERTEX
  5
71
  8
LAYER_01
 10
-51.03238410325899
 20
28.15686929391766
 30
0.0
  0
VERTEX
  5
72
  8
LAYER_01
 10
-48.85235007596889
 20
26.05204823758275
 30
0.0
  0
VERTEX
  5
73
  8
LAYER_01
 10
-48.8411491550328
 20
26.04123400225333
 30
0.0
  0
VERTEX
  5
74
  8
LAYER_01
 10
-48.82960820783155
 20
26.0307666798188
 30
0.0
  0
VERTEX
  5
75
  8
LAYER_01
 10
-48.56397322922161
 20
25.78983757944967
 30
0.0
  0
VERTEX
  5
76
  8
LAYER_01
 10
-48.26854156992881
 20
25.56536446796578
 30
0.0
  0
VERTEX
  5
77
  8
LAYER_01
 10
-47.91540533734548
 20
25.39776062750352
 30
0.0
  0
VERTEX
  5
78
  8
LAYER_01
 10
-47.51685941159485
 20
25.2974521752609
 30
0.0
  0
VERTEX
  5
79
  8
LAYER_01
 10
-47.08371385077317
 20
25.28425915604644
 30
0.0
  0
VERTEX
  5
7A
  8
LAYER_01
 10
-46.76494816651665
 20
25.33690877797308
 30
0.0
  0
VERTEX
  5
7B
  8
LAYER_01
 10
-46.58059958247844
 20
25.39286107824719
 30
0.0
  0
VERTEX
  5
7C
  8
LAYER_01
 10
-45.08361633317124
 20
25.9317122927519
 30
0.0
  0
VERTEX
  5
7D
  8
LAYER_01
 10
-34.33736611795242
 20
15.18546207753326
 30
0.0
  0
VERTEX
  5
7E
  8
LAYER_01
 10
-33.97355688796775
 20
14.86555474968466
 30
0.0
  0
VERTEX
  5
7F
  8
LAYER_01
 10
-33.50480075001818
 20
14.55463405143248
 30
0.0
  0
VERTEX
  5
80
  8
LAYER_01
 10
-33.05596865481685
 20
14.33568408034221
 30
0.0
  0
VERTEX
  5
81
  8
LAYER_01
 10
-32.4376503113469
 20
14.13720594240102
 30
0.0
  0
VERTEX
  5
82
  8
LAYER_01
 10
-31.81652378755586
 20
14.04345527539509
 30
0.0
  0
VERTEX
  5
83
  8
LAYER_01
 10
-31.15484079064255
 20
14.05115159990677
 30
0.0
  0
VERTEX
  5
84
  8
LAYER_01
 10
-30.55168581078668
 20
14.15544318255233
 30
0.0
  0
VERTEX
  5
85
  8
LAYER_01
 10
-29.96928702128463
 20
14.35100429533662
 30
0.0
  0
VERTEX
  5
86
  8
LAYER_01
 10
-29.41007869579614
 20
14.6417643918499
 30
0.0
  0
VERTEX
  5
87
  8
LAYER_01
 10
-28.9104847313606
 20
15.01319000686745
 30
0.0
  0
VERTEX
  5
88
  8
LAYER_01
 10
-28.71469514057067
 20
15.19663590574019
 30
0.0
  0
VERTEX
  5
89
  8
LAYER_01
 10
-15.17502564280942
 20
28.73630540350121
 30
0.0
  0
VERTEX
  5
8A
  8
LAYER_01
 10
-14.86076731936571
 20
29.09317502199485
 30
0.0
  0
VERTEX
  5
8B
  8
LAYER_01
 10
-14.57140825778217
 20
29.52076138348196
 30
0.0
  0
VERTEX
  5
8C
  8
LAYER_01
 10
-14.29665220763923
 20
30.08508887390285
 30
0.0
  0
VERTEX
  5
8D
  8
LAYER_01
 10
-14.08353140949404
 20
30.83276662334287
 30
0.0
  0
VERTEX
  5
8E
  8
LAYER_01
 10
-14.02493378743857
 20
31.74406038066494
 30
0.0
  0
VERTEX
  5
8F
  8
LAYER_01
 10
-14.153337398256
 20
32.56513317966142
 30
0.0
  0
VERTEX
  5
90
  8
LAYER_01
 10
-14.44059986936969
 20
33.32520435625857
 30
0.0
  0
VERTEX
  5
91
  8
LAYER_01
 10
-14.77500742541895
 20
33.87847189008162
 30
0.0
  0
VERTEX
  5
92
  8
LAYER_01
 10
-15.16870179795178
 20
34.34198529784341
 30
0.0
  0
VERTEX
  5
93
  8
LAYER_01
 10
-25.92215999991123
 20
45.09544349980334
 30
0.0
  0
VERTEX
  5
94
  8
LAYER_01
 10
-25.38755817050243
 20
46.59138728824293
 30
0.0
  0
VERTEX
  5
95
  8
LAYER_01
 10
-25.31846326188428
 20
46.8350889874358
 30
0.0
  0
VERTEX
  5
96
  8
LAYER_01
 10
-25.27500211488621
 20
47.24883010550687
 30
0.0
  0
VERTEX
  5
97
  8
LAYER_01
 10
-25.34495938665296
 20
47.75894532537215
 30
0.0
  0
VERTEX
  5
98
  8
LAYER_01
 10
-25.50363993648891
 20
48.15707298389962
 30
0.0
  0
VERTEX
  5
99
  8
LAYER_01
 10
-25.68388775990216
 20
48.44092516701661
 30
0.0
  0
VERTEX
  5
9A
  8
LAYER_01
 10
-25.9012563435239
 20
48.68285686577345
 30
0.0
  0
VERTEX
  5
9B
  8
LAYER_01
 10
-28.15606722016777
 20
51.03168877678576
 30
0.0
  0
VERTEX
  5
9C
  8
LAYER_01
 10
-42.60461885138419
 20
65.51007397388312
 30
0.0
  0
VERTEX
  5
9D
  8
LAYER_01
 10
-65.51007519813884
 20
42.60461887051619
 30
0.0
  0
SEQEND
  5
9E
  8
LAYER_01
  0
POLYLINE
  5
9F
  8
LAYER_01
 66
     1
 10
0.0
 20
0.0
 30
0.0
 70
     1
  0
VERTEX
  5
A0
  8
LAYER_01
 10
-64.80150744928049
 20
-41.89751532655159
 30
0.0
  0
VERTEX
  5
A1
  8
LAYER_01
 10
-51.03238410325899
 20
-28.15686929391796
 30
0.0
  0
VERTEX
  5
A2
  8
LAYER_01
 10
-48.85235007596889
 20
-26.05204823758307
 30
0.0
  0
VERTEX
  5
A3
  8
LAYER_01
 10
-48.84114915503281
 20
-26.04123400225366
 30
0.0
  0
VERTEX
  5
A4
  8
LAYER_01
 10
-48.82960820783155
 20
-26.03076667981911
 30
0.0
  0
VERTEX
  5
A5
  8
LAYER_01
 10
-48.56397322922161
 20
-25.78983757944999
 30
0.0
  0
VERTEX
  5
A6
  8
LAYER_01
 10
-48.26854156992881
 20
-25.56536446796609
 30
0.0
  0
VERTEX
  5
A7
  8
LAYER_01
 10
-47.91540533734548
 20
-25.39776062750383
 30
0.0
  0
VERTEX
  5
A8
  8
LAYER_01
 10
-47.51685941159484
 20
-25.29745217526121
 30
0.0
  0
VERTEX
  5
A9
  8
LAYER_01
 10
-47.08371385077317
 20
-25.28425915604675
 30
0.0
  0
VERTEX
  5
AA
  8
LAYER_01
 10
-46.76494816651665
 20
-25.33690877797339
 30
0.0
  0
VERTEX
  5
AB
  8
LAYER_01
 10
-46.58059958247844
 20
-25.3928610782475
 30
0.0
  0
VERTEX
  5
AC
  8
LAYER_01
 10
-45.08361633317124
 20
-25.93171229275221
 30
0.0
  0
VERTEX
  5
AD
  8
LAYER_01
 10
-34.33736611795242
 20
-15.18546207753357
 30
0.0
  0
VERTEX
  5
AE
  8
LAYER_01
 10
-33.97355688796775
 20
-14.86555474968497
 30
0.0
  0
VERTEX
  5
AF
  8
LAYER_01
 10
-33.50480075001818
 20
-14.5546340514328
 30
0.0
  0
VERTEX
  5
B0
  8
LAYER_01
 10
-33.05596865481685
 20
-14.33568408034252
 30
0.0
  0
VERTEX
  5
B1
  8
LAYER_01
 10
-32.4376503113469
 20
-14.13720594240133
 30
0.0
  0
VERTEX
  5
B2
  8
LAYER_01
 10
-31.81652378755586
 20
-14.0434552753954
 30
0.0
  0
VERTEX
  5
B3
  8
LAYER_01
 10
-31.15484079064255
 20
-14.05115159990709
 30
0.0
  0
VERTEX
  5
B4
  8
LAYER_01
 10
-30.55168581078668
 20
-14.15544318255264
 30
0.0
  0
VERTEX
  5
B5
  8
LAYER_01
 10
-29.96928702128463
 20
-14.35100429533693
 30
0.0
  0
VERTEX
  5
B6
  8
LAYER_01
 10
-29.41007869579614
 20
-14.64176439185022
 30
0.0
  0
VERTEX
  5
B7
  8
LAYER_01
 10
-28.9104847313606
 20
-15.01319000686777
 30
0.0
  0
VERTEX
  5
B8
  8
LAYER_01
 10
-28.71469514057065
 20
-15.19663590574052
 30
0.0
  0
VERTEX
  5
B9
  8
LAYER_01
 10
-15.17502564280967
 20
-28.73630540350122
 30
0.0
  0
VERTEX
  5
BA
  8
LAYER_01
 10
-14.86076731936569
 20
-29.09317502199517
 30
0.0
  0
VERTEX
  5
BB
  8
LAYER_01
 10
-14.57140825778218
 20
-29.52076138348227
 30
0.0
  0
VERTEX
  5
BC
  8
LAYER_01
 10
-14.29665220763924
 20
-30.08508887390317
 30
0.0
  0
VERTEX
  5
BD
  8
LAYER_01
 10
-14.08353140949405
 20
-30.83276662334319
 30
0.0
  0
VERTEX
  5
BE
  8
LAYER_01
 10
-14.02493378743857
 20
-31.74406038066524
 30
0.0
  0
VERTEX
  5
BF
  8
LAYER_01
 10
-14.15333739825599
 20
-32.56513317966174
 30
0.0
  0
VERTEX
  5
C0
  8
LAYER_01
 10
-14.44059986936969
 20
-33.32520435625887
 30
0.0
  0
VERTEX
  5
C1
  8
LAYER_01
 10
-14.77500742541895
 20
-33.87847189008192
 30
0.0
  0
VERTEX
  5
C2
  8
LAYER_01
 10
-15.16870179795264
 20
-34.34198529784457
 30
0.0
  0
VERTEX
  5
C3
  8
LAYER_01
 10
-25.92215999991122
 20
-45.09544349980364
 30
0.0
  0
VERTEX
  5
C4
  8
LAYER_01
 10
-25.38755817050237
 20
-46.59138728824339
 30
0.0
  0
VERTEX
  5
C5
  8
LAYER_01
 10
-25.31846326188427
 20
-46.83508898743614
 30
0.0
  0
VERTEX
  5
C6
  8
LAYER_01
 10
-25.27500211488621
 20
-47.24883010550721
 30
0.0
  0
VERTEX
  5
C7
  8
LAYER_01
 10
-25.34495938665297
 20
-47.75894532537247
 30
0.0
  0
VERTEX
  5
C8
  8
LAYER_01
 10
-25.5036399364889
 20
-48.15707298389992
 30
0.0
  0
VERTEX
  5
C9
  8
LAYER_01
 10
-25.68388775990215
 20
-48.44092516701693
 30
0.0
  0
VERTEX
  5
CA
  8
LAYER_01
 10
-25.90125634352391
 20
-48.68285686577377
 30
0.0
  0
VERTEX
  5
CB
  8
LAYER_01
 10
-28.15606722016727
 20
-51.03168877678557
 30
0.0
  0
VERTEX
  5
CC
  8
LAYER_01
 10
-42.60461885138419
 20
-65.51007397388344
 30
0.0
  0
VERTEX
  5
CD
  8
LAYER_01
 10
-65.51007519813885
 20
-42.60461887051649
 30
0.0
  0
SEQEND
  5
CE
  8
LAYER_01
  0
POLYLINE
  5
CF
  8
LAYER_01
 66
     1
 10
0.0
 20
0.0
 30
0.0
 70
     1
  0
VERTEX
  5
D0
  8
LAYER_01
 10
64.80150744928054
 20
-41.89751532655159
 30
0.0
  0
VERTEX
  5
D1
  8
LAYER_01
 10
51.03238410325902
 20
-28.15686929391796
 30
0.0
  0
VERTEX
  5
D2
  8
LAYER_01
 10
48.85235007596891
 20
-26.05204823758307
 30
0.0
  0
VERTEX
  5
D3
  8
LAYER_01
 10
48.84114915503284
 20
-26.04123400225366
 30
0.0
  0
VERTEX
  5
D4
  8
LAYER_01
 10
48.82960820783158
 20
-26.03076667981911
 30
0.0
  0
VERTEX
  5
D5
  8
LAYER_01
 10
48.56397322922165
 20
-25.78983757944999
 30
0.0
  0
VERTEX
  5
D6
  8
LAYER_01
 10
48.26854156992883
 20
-25.56536446796609
 30
0.0
  0
VERTEX
  5
D7
  8
LAYER_01
 10
47.91540533734549
 20
-25.39776062750383
 30
0.0
  0
VERTEX
  5
D8
  8
LAYER_01
 10
47.51685941159488
 20
-25.29745217526121
 30
0.0
  0
VERTEX
  5
D9
  8
LAYER_01
 10
47.08371385077317
 20
-25.28425915604676
 30
0.0
  0
VERTEX
  5
DA
  8
LAYER_01
 10
46.76494816651667
 20
-25.33690877797339
 30
0.0
  0
VERTEX
  5
DB
  8
LAYER_01
 10
46.58059958247853
 20
-25.39286107824748
 30
0.0
  0
VERTEX
  5
DC
  8
LAYER_01
 10
45.08361633317128
 20
-25.93171229275221
 30
0.0
  0
VERTEX
  5
DD
  8
LAYER_01
 10
34.33736611795245
 20
-15.18546207753357
 30
0.0
  0
VERTEX
  5
DE
  8
LAYER_01
 10
33.97355688796778
 20
-14.86555474968497
 30
0.0
  0
VERTEX
  5
DF
  8
LAYER_01
 10
33.50480075001815
 20
-14.55463405143276
 30
0.0
  0
VERTEX
  5
E0
  8
LAYER_01
 10
33.05596865481688
 20
-14.33568408034252
 30
0.0
  0
VERTEX
  5
E1
  8
LAYER_01
 10
32.43765031134697
 20
-14.13720594240134
 30
0.0
  0
VERTEX
  5
E2
  8
LAYER_01
 10
31.81652378755589
 20
-14.0434552753954
 30
0.0
  0
VERTEX
  5
E3
  8
LAYER_01
 10
31.15484079064258
 20
-14.05115159990709
 30
0.0
  0
VERTEX
  5
E4
  8
LAYER_01
 10
30.55168581078671
 20
-14.15544318255264
 30
0.0
  0
VERTEX
  5
E5
  8
LAYER_01
 10
29.96928702128466
 20
-14.35100429533693
 30
0.0
  0
VERTEX
  5
E6
  8
LAYER_01
 10
29.41007869579614
 20
-14.64176439185024
 30
0.0
  0
VERTEX
  5
E7
  8
LAYER_01
 10
28.91048473136063
 20
-15.01319000686776
 30
0.0
  0
VERTEX
  5
E8
  8
LAYER_01
 10
28.71469514057073
 20
-15.19663590574046
 30
0.0
  0
VERTEX
  5
E9
  8
LAYER_01
 10
15.17502564280997
 20
-28.73630540350092
 30
0.0
  0
VERTEX
  5
EA
  8
LAYER_01
 10
14.86076731936578
 20
-29.09317502199509
 30
0.0
  0
VERTEX
  5
EB
  8
LAYER_01
 10
14.57140825778222
 20
-29.52076138348223
 30
0.0
  0
VERTEX
  5
EC
  8
LAYER_01
 10
14.29665220763927
 20
-30.08508887390317
 30
0.0
  0
VERTEX
  5
ED
  8
LAYER_01
 10
14.08353140949407
 20
-30.83276662334319
 30
0.0
  0
VERTEX
  5
EE
  8
LAYER_01
 10
14.02493378743861
 20
-31.7440603806652
 30
0.0
  0
VERTEX
  5
EF
  8
LAYER_01
 10
14.15333739825603
 20
-32.56513317966174
 30
0.0
  0
VERTEX
  5
F0
  8
LAYER_01
 10
14.44059986936972
 20
-33.32520435625887
 30
0.0
  0
VERTEX
  5
F1
  8
LAYER_01
 10
14.77500742541895
 20
-33.8784718900819
 30
0.0
  0
VERTEX
  5
F2
  8
LAYER_01
 10
15.16870179795178
 20
-34.34198529784369
 30
0.0
  0
VERTEX
  5
F3
  8
LAYER_01
 10
25.92215999991126
 20
-45.09544349980364
 30
0.0
  0
VERTEX
  5
F4
  8
LAYER_01
 10
25.38755817050244
 20
-46.59138728824326
 30
0.0
  0
VERTEX
  5
F5
  8
LAYER_01
 10
25.3184632618843
 20
-46.83508898743614
 30
0.0
  0
VERTEX
  5
F6
  8
LAYER_01
 10
25.27500211488623
 20
-47.24883010550718
 30
0.0
  0
VERTEX
  5
F7
  8
LAYER_01
 10
25.344959386653
 20
-47.75894532537245
 30
0.0
  0
VERTEX
  5
F8
  8
LAYER_01
 10
25.50363993648891
 20
-48.1570729838999
 30
0.0
  0
VERTEX
  5
F9
  8
LAYER_01
 10
25.68388775990218
 20
-48.44092516701694
 30
0.0
  0
VERTEX
  5
FA
  8
LAYER_01
 10
25.90125634352344
 20
-48.68285686577326
 30
0.0
  0
VERTEX
  5
FB
  8
LAYER_01
 10
28.15606722016778
 20
-51.03168877678608
 30
0.0
  0
VERTEX
  5
FC
  8
LAYER_01
 10
42.60461885137867
 20
-65.51007397387788
 30
0.0
  0
VERTEX
  5
FD
  8
LAYER_01
 10
65.51007519813881
 20
-42.60461887051657
 30
0.0
  0
SEQEND
  5
FE
  8
LAYER_01
  0
POLYLINE
  5
FF
  8
LAYER_01
 66
     1
 10
0.0
 20
0.0
 30
0.0
 70
     1
  0
VERTEX
  5
100
  8
LAYER_01
 10
64.80150744928054
 20
41.89751532655127
 30
0.0
  0
VERTEX
  5
101
  8
LAYER_01
 10
51.03238410325902
 20
28.15686929391766
 30
0.0
  0
VERTEX
  5
102
  8
LAYER_01
 10
48.85235007596891
 20
26.05204823758275
 30
0.0
  0
VERTEX
  5
103
  8
LAYER_01
 10
48.84114915503282
 20
26.04123400225333
 30
0.0
  0
VERTEX
  5
104
  8
LAYER_01
 10
48.82960820783158
 20
26.0307666798188
 30
0.0
  0
VERTEX
  5
105
  8
LAYER_01
 10
48.56397322922163
 20
25.78983757944967
 30
0.0
  0
VERTEX
  5
106
  8
LAYER_01
 10
48.26854156992883
 20
25.56536446796577
 30
0.0
  0
VERTEX
  5
107
  8
LAYER_01
 10
47.91540533734549
 20
25.39776062750352
 30
0.0
  0
VERTEX
  5
108
  8
LAYER_01
 10
47.51685941159488
 20
25.2974521752609
 30
0.0
  0
VERTEX
  5
109
  8
LAYER_01
 10
47.08371385077317
 20
25.28425915604645
 30
0.0
  0
VERTEX
  5
10A
  8
LAYER_01
 10
46.76494816651667
 20
25.33690877797308
 30
0.0
  0
VERTEX
  5
10B
  8
LAYER_01
 10
46.58059958247853
 20
25.39286107824717
 30
0.0
  0
VERTEX
  5
10C
  8
LAYER_01
 10
45.08361633317128
 20
25.9317122927519
 30
0.0
  0
VERTEX
  5
10D
  8
LAYER_01
 10
34.33736611795245
 20
15.18546207753326
 30
0.0
  0
VERTEX
  5
10E
  8
LAYER_01
 10
33.97355688796777
 20
14.86555474968466
 30
0.0
  0
VERTEX
  5
10F
  8
LAYER_01
 10
33.50480075001816
 20
14.55463405143245
 30
0.0
  0
VERTEX
  5
110
  8
LAYER_01
 10
33.05596865481688
 20
14.33568408034221
 30
0.0
  0
VERTEX
  5
111
  8
LAYER_01
 10
32.43765031134697
 20
14.13720594240103
 30
0.0
  0
VERTEX
  5
112
  8
LAYER_01
 10
31.81652378755588
 20
14.04345527539509
 30
0.0
  0
VERTEX
  5
113
  8
LAYER_01
 10
31.15484079064258
 20
14.05115159990677
 30
0.0
  0
VERTEX
  5
114
  8
LAYER_01
 10
30.55168581078671
 20
14.15544318255233
 30
0.0
  0
VERTEX
  5
115
  8
LAYER_01
 10
29.96928702128466
 20
14.35100429533662
 30
0.0
  0
VERTEX
  5
116
  8
LAYER_01
 10
29.41007869579614
 20
14.64176439184993
 30
0.0
  0
VERTEX
  5
117
  8
LAYER_01
 10
28.91048473136063
 20
15.01319000686745
 30
0.0
  0
VERTEX
  5
118
  8
LAYER_01
 10
28.71469514057071
 20
15.19663590574017
 30
0.0
  0
VERTEX
  5
119
  8
LAYER_01
 10
15.17502564280971
 20
28.73630540350091
 30
0.0
  0
VERTEX
  5
11A
  8
LAYER_01
 10
14.86076731936578
 20
29.0931750219948
 30
0.0
  0
VERTEX
  5
11B
  8
LAYER_01
 10
14.57140825778222
 20
29.52076138348193
 30
0.0
  0
VERTEX
  5
11C
  8
LAYER_01
 10
14.29665220763927
 20
30.08508887390285
 30
0.0
  0
VERTEX
  5
11D
  8
LAYER_01
 10
14.08353140949407
 20
30.83276662334283
 30
0.0
  0
VERTEX
  5
11E
  8
LAYER_01
 10
14.0249337874386
 20
31.74406038066487
 30
0.0
  0
VERTEX
  5
11F
  8
LAYER_01
 10
14.15333739825603
 20
32.56513317966142
 30
0.0
  0
VERTEX
  5
120
  8
LAYER_01
 10
14.44059986936973
 20
33.32520435625859
 30
0.0
  0
VERTEX
  5
121
  8
LAYER_01
 10
14.77500742541893
 20
33.87847189008157
 30
0.0
  0
VERTEX
  5
122
  8
LAYER_01
 10
15.16870179795181
 20
34.34198529784341
 30
0.0
  0
VERTEX
  5
123
  8
LAYER_01
 10
25.92215999991126
 20
45.09544349980334
 30
0.0
  0
VERTEX
  5
124
  8
LAYER_01
 10
25.38755817050246
 20
46.59138728824293
 30
0.0
  0
VERTEX
  5
125
  8
LAYER_01
 10
25.3184632618843
 20
46.8350889874358
 30
0.0
  0
VERTEX
  5
126
  8
LAYER_01
 10
25.27500211488623
 20
47.24883010550687
 30
0.0
  0
VERTEX
  5
127
  8
LAYER_01
 10
25.344959386653
 20
47.75894532537215
 30
0.0
  0
VERTEX
  5
128
  8
LAYER_01
 10
25.50363993648894
 20
48.1570729838996
 30
0.0
  0
VERTEX
  5
129
  8
LAYER_01
 10
25.68388775990219
 20
48.44092516701661
 30
0.0
  0
VERTEX
  5
12A
  8
LAYER_01
 10
25.90125634352394
 20
48.68285686577347
 30
0.0
  0
VERTEX
  5
12B
  8
LAYER_01
 10
28.15606722016176
 20
51.03168877677967
 30
0.0
  0
VERTEX
  5
12C
  8
LAYER_01
 10
42.60461885138423
 20
65.51007397388312
 30
0.0
  0
VERTEX
  5
12D
  8
LAYER_01
 10
65.51007519813889
 20
42.6046188705162
 30
0.0
  0
SEQEND
  5
12E
  8
LAYER_01
  0
CIRCLE
  5
12F
  8
LAYER_01
 10
0.0
 20
-0.0000000000000639
 30
0.0
 40
0.5
  0
POLYLINE
  5
130
  8
LAYER_01
 66
     1
 10
0.0
 20
0.0
 30
0.0
 70
     1
  0
VERTEX
  5
131
  8
LAYER_01
 10
-43.04102153425269
 20
35.905388901443
 30
0.0
  0
VERTEX
  5
132
  8
LAYER_01
 10
-42.56426566645906
 20
35.07962351561777
 30
0.0
  0
VERTEX
  5
133
  8
LAYER_01
 10
-33.96935268398056
 20
26.48471053313928
 30
0.0
  0
VERTEX
  5
134
  8
LAYER_01
 10
-33.14358729815524
 20
26.00795466534552
 30
0.0
  0
VERTEX
  5
135
  8
LAYER_01
 10
-32.39452060483355
 20
26.00795466534551
 30
0.0
  0
VERTEX
  5
136
  8
LAYER_01
 10
-31.56875521900831
 20
26.48471053313921
 30
0.0
  0
VERTEX
  5
137
  8
LAYER_01
 10
-26.47402080340311
 20
31.57944494874442
 30
0.0
  0
VERTEX
  5
138
  8
LAYER_01
 10
-25.99726493560941
 20
32.4052103345696
 30
0.0
  0
VERTEX
  5
139
  8
LAYER_01
 10
-25.99726493560941
 20
33.15427702789135
 30
0.0
  0
VERTEX
  5
13A
  8
LAYER_01
 10
-26.47402080340309
 20
33.98004241371655
 30
0.0
  0
VERTEX
  5
13B
  8
LAYER_01
 10
-35.06893378588157
 20
42.57495539619521
 30
0.0
  0
VERTEX
  5
13C
  8
LAYER_01
 10
-35.89469917170685
 20
43.05171126398893
 30
0.0
  0
VERTEX
  5
13D
  8
LAYER_01
 10
-36.64376586502858
 20
43.05171126398893
 30
0.0
  0
VERTEX
  5
13E
  8
LAYER_01
 10
-37.46953125085381
 20
42.57495539619526
 30
0.0
  0
VERTEX
  5
13F
  8
LAYER_01
 10
-42.56426566645908
 20
37.48022098059002
 30
0.0
  0
VERTEX
  5
140
  8
LAYER_01
 10
-43.04102153425269
 20
36.65445559476481
 30
0.0
  0
SEQEND
  5
141
  8
LAYER_01
  0
POLYLINE
  5
142
  8
LAYER_01
 66
     1
 10
0.0
 20
0.0
 30
0.0
 70
     1
  0
VERTEX
  5
143
  8
LAYER_01
 10
43.04102153425272
 20
35.905388901443
 30
0.0
  0
VERTEX
  5
144
  8
LAYER_01
 10
42.56426566645909
 20
35.07962351561777
 30
0.0
  0
VERTEX
  5
145
  8
LAYER_01
 10
33.96935268398057
 20
26.48471053313928
 30
0.0
  0
VERTEX
  5
146
  8
LAYER_01
 10
33.14358729815525
 20
26.00795466534552
 30
0.0
  0
VERTEX
  5
147
  8
LAYER_01
 10
32.39452060483357
 20
26.00795466534551
 30
0.0
  0
VERTEX
  5
148
  8
LAYER_01
 10
31.56875521900834
 20
26.48471053313921
 30
0.0
  0
VERTEX
  5
149
  8
LAYER_01
 10
26.47402080340314
 20
31.57944494874442
 30
0.0
  0
VERTEX
  5
14A
  8
LAYER_01
 10
25.99726493560944
 20
32.4052103345696
 30
0.0
  0
VERTEX
  5
14B
  8
LAYER_01
 10
25.99726493560944
 20
33.15427702789135
 30
0.0
  0
VERTEX
  5
14C
  8
LAYER_01
 10
26.47402080340312
 20
33.98004241371655
 30
0.0
  0
VERTEX
  5
14D
  8
LAYER_01
 10
35.06893378588161
 20
42.57495539619521
 30
0.0
  0
VERTEX
  5
14E
  8
LAYER_01
 10
35.89469917170688
 20
43.05171126398893
 30
0.0
  0
VERTEX
  5
14F
  8
LAYER_01
 10
36.64376586502861
 20
43.05171126398893
 30
0.0
  0
VERTEX
  5
150
  8
LAYER_01
 10
37.46953125085385
 20
42.57495539619526
 30
0.0
  0
VERTEX
  5
151
  8
LAYER_01
 10
42.56426566645912
 20
37.48022098059002
 30
0.0
  0
VERTEX
  5
152
  8
LAYER_01
 10
43.04102153425272
 20
36.65445559476481
 30
0.0
  0
SEQEND
  5
153
  8
LAYER_01
  0
POLYLINE
  5
154
  8
LAYER_01
 66
     1
 10
0.0
 20
0.0
 30
0.0
 70
     1
  0
VERTEX
  5
155
  8
LAYER_01
 10
-43.04102153425269
 20
-35.90538890144332
 30
0.0
  0
VERTEX
  5
156
  8
LAYER_01
 10
-42.56426566645906
 20
-35.07962351561808
 30
0.0
  0
VERTEX
  5
157
  8
LAYER_01
 10
-33.96935268398056
 20
-26.48471053313959
 30
0.0
  0
VERTEX
  5
158
  8
LAYER_01
 10
-33.14358729815524
 20
-26.00795466534584
 30
0.0
  0
VERTEX
  5
159
  8
LAYER_01
 10
-32.39452060483355
 20
-26.00795466534582
 30
0.0
  0
VERTEX
  5
15A
  8
LAYER_01
 10
-31.56875521900831
 20
-26.48471053313952
 30
0.0
  0
VERTEX
  5
15B
  8
LAYER_01
 10
-26.47402080340311
 20
-31.57944494874472
 30
0.0
  0
VERTEX
  5
15C
  8
LAYER_01
 10
-25.99726493560941
 20
-32.40521033456993
 30
0.0
  0
VERTEX
  5
15D
  8
LAYER_01
 10
-25.99726493560941
 20
-33.15427702789167
 30
0.0
  0
VERTEX
  5
15E
  8
LAYER_01
 10
-26.47402080340309
 20
-33.98004241371684
 30
0.0
  0
VERTEX
  5
15F
  8
LAYER_01
 10
-35.06893378588157
 20
-42.57495539619551
 30
0.0
  0
VERTEX
  5
160
  8
LAYER_01
 10
-35.89469917170685
 20
-43.05171126398925
 30
0.0
  0
VERTEX
  5
161
  8
LAYER_01
 10
-36.64376586502858
 20
-43.05171126398925
 30
0.0
  0
VERTEX
  5
162
  8
LAYER_01
 10
-37.46953125085381
 20
-42.57495539619556
 30
0.0
  0
VERTEX
  5
163
  8
LAYER_01
 10
-42.56426566645908
 20
-37.48022098059035
 30
0.0
  0
VERTEX
  5
164
  8
LAYER_01
 10
-43.04102153425269
 20
-36.65445559476514
 30
0.0
  0
SEQEND
  5
165
  8
LAYER_01
  0
POLYLINE
  5
166
  8
LAYER_01
 66
     1
 10
0.0
 20
0.0
 30
0.0
 70
     1
  0
VERTEX
  5
167
  8
LAYER_01
 10
43.04102153425272
 20
-35.90538890144332
 30
0.0
  0
VERTEX
  5
168
  8
LAYER_01
 10
42.56426566645909
 20
-35.07962351561808
 30
0.0
  0
VERTEX
  5
169
  8
LAYER_01
 10
33.96935268398057
 20
-26.48471053313959
 30
0.0
  0
VERTEX
  5
16A
  8
LAYER_01
 10
33.14358729815525
 20
-26.00795466534584
 30
0.0
  0
VERTEX
  5
16B
  8
LAYER_01
 10
32.39452060483357
 20
-26.00795466534582
 30
0.0
  0
VERTEX
  5
16C
  8
LAYER_01
 10
31.56875521900834
 20
-26.48471053313952
 30
0.0
  0
VERTEX
  5
16D
  8
LAYER_01
 10
26.47402080340314
 20
-31.57944494874472
 30
0.0
  0
VERTEX
  5
16E
  8
LAYER_01
 10
25.99726493560944
 20
-32.40521033456993
 30
0.0
  0
VERTEX
  5
16F
  8
LAYER_01
 10
25.99726493560944
 20
-33.15427702789167
 30
0.0
  0
VERTEX
  5
170
  8
LAYER_01
 10
26.47402080340312
 20
-33.98004241371684
 30
0.0
  0
VERTEX
  5
171
  8
LAYER_01
 10
35.06893378588161
 20
-42.57495539619551
 30
0.0
  0
VERTEX
  5
172
  8
LAYER_01
 10
35.89469917170688
 20
-43.05171126398925
 30
0.0
  0
VERTEX
  5
173
  8
LAYER_01
 10
36.64376586502861
 20
-43.05171126398925
 30
0.0
  0
VERTEX
  5
174
  8
LAYER_01
 10
37.46953125085385
 20
-42.57495539619556
 30
0.0
  0
VERTEX
  5
175
  8
LAYER_01
 10
42.56426566645912
 20
-37.48022098059035
 30
0.0
  0
VERTEX
  5
176
  8
LAYER_01
 10
43.04102153425272
 20
-36.65445559476514
 30
0.0
  0
SEQEND
  5
177
  8
LAYER_01
  0
ENDSEC
  0
EOF
