  0
SECTION
  2
HEADER
  9
$ACADVER
  1
AC1009
  9
$DWGCODEPAGE
  3
ansi_1252
  9
$INSBASE
 10
0.0
 20
0.0
 30
0.0
  9
$EXTMIN
 10
-52.04102153425272
 20
-52.05171237622062
 30
0.0
  9
$EXTMAX
 10
52.04102151265218
 20
52.05171126398903
 30
0.0
  9
$LIMMIN
 10
0.0
 20
0.0
  9
$LIMMAX
 10
12.0
 20
9.0
  9
$ORTHOMODE
 70
     0
  9
$REGENMODE
 70
     1
  9
$FILLMODE
 70
     1
  9
$QTEXTMODE
 70
     0
  9
$MIRRTEXT
 70
     1
  9
$DRAGMODE
 70
     2
  9
$LTSCALE
 40
1.0
  9
$OSMODE
 70
    37
  9
$ATTMODE
 70
     1
  9
$TEXTSIZE
 40
0.2
  9
$TRACEWID
 40
0.05
  9
$TEXTSTYLE
  7
STANDARD
  9
$CLAYER
  8
LAYER_01
  9
$CELTYPE
  6
BYLAYER
  9
$CECOLOR
 62
   256
  9
$DIMSCALE
 40
1.0
  9
$DIMASZ
 40
0.18
  9
$DIMEXO
 40
0.0625
  9
$DIMDLI
 40
0.38
  9
$DIMRND
 40
0.0
  9
$DIMDLE
 40
0.0
  9
$DIMEXE
 40
0.18
  9
$DIMTP
 40
0.0
  9
$DIMTM
 40
0.0
  9
$DIMTXT
 40
0.18
  9
$DIMCEN
 40
0.09
  9
$DIMTSZ
 40
0.0
  9
$DIMTOL
 70
     0
  9
$DIMLIM
 70
     0
  9
$DIMTIH
 70
     1
  9
$DIMTOH
 70
     1
  9
$DIMSE1
 70
     0
  9
$DIMSE2
 70
     0
  9
$DIMTAD
 70
     0
  9
$DIMZIN
 70
     0
  9
$DIMBLK
  1

  9
$DIMASO
 70
     1
  9
$DIMSHO
 70
     1
  9
$DIMPOST
  1

  9
$DIMAPOST
  1

  9
$DIMALT
 70
     0
  9
$DIMALTD
 70
     2
  9
$DIMALTF
 40
25.4
  9
$DIMLFAC
 40
1.0
  9
$DIMTOFL
 70
     0
  9
$DIMTVP
 40
0.0
  9
$DIMTIX
 70
     0
  9
$DIMSOXD
 70
     0
  9
$DIMSAH
 70
     0
  9
$DIMBLK1
  1

  9
$DIMBLK2
  1

  9
$DIMSTYLE
  2
STANDARD
  9
$DIMCLRD
 70
     0
  9
$DIMCLRE
 70
     0
  9
$DIMCLRT
 70
     0
  9
$DIMTFAC
 40
1.0
  9
$DIMGAP
 40
0.09
  9
$LUNITS
 70
     2
  9
$LUPREC
 70
     3
  9
$SKETCHINC
 40
0.1
  9
$FILLETRAD
 40
0.5
  9
$AUNITS
 70
     0
  9
$AUPREC
 70
     0
  9
$MENU
  1
.
  9
$ELEVATION
 40
0.0
  9
$PELEVATION
 40
0.0
  9
$THICKNESS
 40
0.0
  9
$LIMCHECK
 70
     0
  9
$CHAMFERA
 40
0.0
  9
$CHAMFERB
 40
0.0
  9
$SKPOLY
 70
     0
  9
$TDCREATE
 40
2458900.50554515
  9
$TDUPDATE
 40
2458900.505565151
  9
$TDINDWG
 40
0.0000000116
  9
$TDUSRTIMER
 40
0.0000000116
  9
$USRTIMER
 70
     1
  9
$ANGBASE
 50
0.0
  9
$ANGDIR
 70
     0
  9
$PDMODE
 70
     0
  9
$PDSIZE
 40
0.0
  9
$PLINEWID
 40
0.0
  9
$COORDS
 70
     1
  9
$SPLFRAME
 70
     0
  9
$SPLINETYPE
 70
     6
  9
$SPLINESEGS
 70
     8
  9
$ATTDIA
 70
     0
  9
$ATTREQ
 70
     1
  9
$HANDLING
 70
     1
  9
$HANDSEED
  5
107
  9
$SURFTAB1
 70
     6
  9
$SURFTAB2
 70
     6
  9
$SURFTYPE
 70
     6
  9
$SURFU
 70
     6
  9
$SURFV
 70
     6
  9
$UCSNAME
  2

  9
$UCSORG
 10
0.0
 20
0.0
 30
0.0
  9
$UCSXDIR
 10
1.0
 20
0.0
 30
0.0
  9
$UCSYDIR
 10
0.0
 20
1.0
 30
0.0
  9
$PUCSNAME
  2

  9
$PUCSORG
 10
0.0
 20
0.0
 30
0.0
  9
$PUCSXDIR
 10
1.0
 20
0.0
 30
0.0
  9
$PUCSYDIR
 10
0.0
 20
1.0
 30
0.0
  9
$USERI1
 70
     0
  9
$USERI2
 70
     0
  9
$USERI3
 70
     0
  9
$USERI4
 70
     0
  9
$USERI5
 70
     0
  9
$USERR1
 40
0.0
  9
$USERR2
 40
0.0
  9
$USERR3
 40
0.0
  9
$USERR4
 40
0.0
  9
$USERR5
 40
0.0
  9
$WORLDVIEW
 70
     1
  9
$SHADEDGE
 70
     3
  9
$SHADEDIF
 70
    70
  9
$TILEMODE
 70
     1
  9
$MAXACTVP
 70
    64
  9
$PLIMCHECK
 70
     0
  9
$PEXTMIN
 10
1.000000000000000E+20
 20
1.000000000000000E+20
 30
1.000000000000000E+20
  9
$PEXTMAX
 10
-1.000000000000000E+20
 20
-1.000000000000000E+20
 30
-1.000000000000000E+20
  9
$PLIMMIN
 10
0.0
 20
0.0
  9
$PLIMMAX
 10
12.0
 20
9.0
  9
$UNITMODE
 70
     0
  9
$VISRETAIN
 70
     1
  9
$PLINEGEN
 70
     0
  9
$PSLTSCALE
 70
     1
  0
ENDSEC
  0
SECTION
  2
TABLES
  0
TABLE
  2
VPORT
 70
     1
  0
VPORT
  2
*ACTIVE
 70
     0
 10
0.0
 20
0.0
 11
1.0
 21
1.0
 12
-0.0000000108002709
 22
-0.0000005561157934
 13
0.0
 23
0.0
 14
0.5
 24
0.5
 15
0.5
 25
0.5
 16
0.0
 26
0.0
 36
1.0
 17
0.0
 27
0.0
 37
0.0
 40
106.1854921130139
 41
0.9997946216122665
 42
50.0
 43
0.0
 44
0.0
 50
0.0
 51
0.0
 71
     0
 72
   100
 73
     1
 74
     3
 75
     0
 76
     0
 77
     0
 78
     0
  0
ENDTAB
  0
TABLE
  2
LTYPE
 70
     1
  0
LTYPE
  2
CONTINUOUS
 70
     0
  3
Solid line
 72
    65
 73
     0
 40
0.0
  0
ENDTAB
  0
TABLE
  2
LAYER
 70
     2
  0
LAYER
  2
0
 70
     0
 62
     7
  6
CONTINUOUS
  0
LAYER
  2
LAYER_01
 70
     0
 62
     7
  6
CONTINUOUS
  0
ENDTAB
  0
TABLE
  2
STYLE
 70
     1
  0
STYLE
  2
STANDARD
 70
     0
 40
0.0
 41
1.0
 50
0.0
 71
     0
 42
0.2
  3
txt
  4

  0
ENDTAB
  0
TABLE
  2
VIEW
 70
     0
  0
ENDTAB
  0
TABLE
  2
UCS
 70
     0
  0
ENDTAB
  0
TABLE
  2
APPID
 70
     1
  0
APPID
  2
ACAD
 70
     0
  0
ENDTAB
  0
TABLE
  2
DIMSTYLE
 70
     1
  0
DIMSTYLE
  2
STANDARD
 70
     0
  3

  4

  5

  6

  7

 40
1.0
 41
0.18
 42
0.0625
 43
0.38
 44
0.18
 45
0.0
 46
0.0
 47
0.0
 48
0.0
140
0.18
141
0.09
142
0.0
143
25.4
144
1.0
145
0.0
146
1.0
147
0.09
 71
     0
 72
     0
 73
     1
 74
     1
 75
     0
 76
     0
 77
     0
 78
     0
170
     0
171
     2
172
     0
173
     0
174
     0
175
     0
176
     0
177
     0
178
     0
  0
ENDTAB
  0
ENDSEC
  0
SECTION
  2
BLOCKS
  0
BLOCK
  8
0
  2
$MODEL_SPACE
 70
     0
 10
0.0
 20
0.0
 30
0.0
  3
$MODEL_SPACE
  1

  0
ENDBLK
  5
21
  8
0
  0
BLOCK
 67
     1
  8
0
  2
$PAPER_SPACE
 70
     0
 10
0.0
 20
0.0
 30
0.0
  3
$PAPER_SPACE
  1

  0
ENDBLK
  5
1D
 67
     1
  8
0
  0
ENDSEC
  0
SECTION
  2
ENTITIES
  0
POLYLINE
  5
6F
  8
LAYER_01
 66
     1
 10
0.0
 20
0.0
 30
0.0
 70
     1
  0
VERTEX
  5
70
  8
LAYER_01
 10
52.04102151265218
 20
33.49384616956303
 30
0.0
  0
VERTEX
  5
71
  8
LAYER_01
 10
49.76605803977537
 20
29.55349384917659
 30
0.0
  0
VERTEX
  5
72
  8
LAYER_01
 10
39.49548232882108
 20
19.28291813822244
 30
0.0
  0
VERTEX
  5
73
  8
LAYER_01
 10
35.55513000843484
 20
17.00795466534544
 30
0.0
  0
VERTEX
  5
74
  8
LAYER_01
 10
29.98297785135279
 20
17.00795466534544
 30
0.0
  0
VERTEX
  5
75
  8
LAYER_01
 10
26.04262553096646
 20
19.28291813822253
 30
0.0
  0
VERTEX
  5
76
  8
LAYER_01
 10
19.27222838688601
 20
26.05331528230309
 30
0.0
  0
VERTEX
  5
77
  8
LAYER_01
 10
16.99726491400888
 20
29.99366760268924
 30
0.0
  0
VERTEX
  5
78
  8
LAYER_01
 10
16.99726491400888
 20
35.56581975977159
 30
0.0
  0
VERTEX
  5
79
  8
LAYER_01
 10
19.27222838688601
 20
39.50617208015777
 30
0.0
  0
VERTEX
  5
7A
  8
LAYER_01
 10
29.54280409783991
 20
49.77674779111177
 30
0.0
  0
VERTEX
  5
7B
  8
LAYER_01
 10
33.4831564182262
 20
52.05171126398884
 30
0.0
  0
VERTEX
  5
7C
  8
LAYER_01
 10
39.05530857530826
 20
52.05171126398884
 30
0.0
  0
VERTEX
  5
7D
  8
LAYER_01
 10
42.99566089569456
 20
49.77674779111175
 30
0.0
  0
VERTEX
  5
7E
  8
LAYER_01
 10
49.76605803977532
 20
43.00635064703101
 30
0.0
  0
VERTEX
  5
7F
  8
LAYER_01
 10
52.04102151265218
 20
39.0659983266446
 30
0.0
  0
SEQEND
  5
80
  8
LAYER_01
  0
POLYLINE
  5
81
  8
LAYER_01
 66
     1
 10
0.0
 20
0.0
 30
0.0
 70
     1
  0
VERTEX
  5
82
  8
LAYER_01
 10
-52.04102153425272
 20
33.49384616956323
 30
0.0
  0
VERTEX
  5
83
  8
LAYER_01
 10
-49.7660580613759
 20
29.55349384917679
 30
0.0
  0
VERTEX
  5
84
  8
LAYER_01
 10
-39.4954823504218
 20
19.28291813822273
 30
0.0
  0
VERTEX
  5
85
  8
LAYER_01
 10
-35.55513003003553
 20
17.00795466534561
 30
0.0
  0
VERTEX
  5
86
  8
LAYER_01
 10
-29.98297787295341
 20
17.00795466534555
 30
0.0
  0
VERTEX
  5
87
  8
LAYER_01
 10
-26.04262555256706
 20
19.28291813822267
 30
0.0
  0
VERTEX
  5
88
  8
LAYER_01
 10
-19.2722284084866
 20
26.05331528230317
 30
0.0
  0
VERTEX
  5
89
  8
LAYER_01
 10
-16.99726493560942
 20
29.99366760268936
 30
0.0
  0
VERTEX
  5
8A
  8
LAYER_01
 10
-16.99726493560942
 20
35.5658197597717
 30
0.0
  0
VERTEX
  5
8B
  8
LAYER_01
 10
-19.27222840848653
 20
39.50617208015785
 30
0.0
  0
VERTEX
  5
8C
  8
LAYER_01
 10
-29.54280411944032
 20
49.77674779111189
 30
0.0
  0
VERTEX
  5
8D
  8
LAYER_01
 10
-33.48315643982664
 20
52.05171126398898
 30
0.0
  0
VERTEX
  5
8E
  8
LAYER_01
 10
-39.05530859690871
 20
52.05171126398903
 30
0.0
  0
VERTEX
  5
8F
  8
LAYER_01
 10
-42.99566091729503
 20
49.77674779111197
 30
0.0
  0
VERTEX
  5
90
  8
LAYER_01
 10
-49.76605806137586
 20
43.00635064703118
 30
0.0
  0
VERTEX
  5
91
  8
LAYER_01
 10
-52.04102153425269
 20
39.06599832664483
 30
0.0
  0
SEQEND
  5
92
  8
LAYER_01
  0
POLYLINE
  5
93
  8
LAYER_01
 66
     1
 10
0.0
 20
0.0
 30
0.0
 70
     1
  0
VERTEX
  5
94
  8
LAYER_01
 10
-52.04102153425272
 20
-33.49384728179479
 30
0.0
  0
VERTEX
  5
95
  8
LAYER_01
 10
-49.7660580613759
 20
-29.55349496140838
 30
0.0
  0
VERTEX
  5
96
  8
LAYER_01
 10
-39.49548235042178
 20
-19.28291925045426
 30
0.0
  0
VERTEX
  5
97
  8
LAYER_01
 10
-35.55513003003551
 20
-17.00795577757714
 30
0.0
  0
VERTEX
  5
98
  8
LAYER_01
 10
-29.98297787295344
 20
-17.00795577757714
 30
0.0
  0
VERTEX
  5
99
  8
LAYER_01
 10
-26.04262555256706
 20
-19.2829192504542
 30
0.0
  0
VERTEX
  5
9A
  8
LAYER_01
 10
-19.27222840848663
 20
-26.0533163945347
 30
0.0
  0
VERTEX
  5
9B
  8
LAYER_01
 10
-16.99726493560942
 20
-29.99366871492083
 30
0.0
  0
VERTEX
  5
9C
  8
LAYER_01
 10
-16.99726493560942
 20
-35.56582087200326
 30
0.0
  0
VERTEX
  5
9D
  8
LAYER_01
 10
-19.27222840848654
 20
-39.50617319238944
 30
0.0
  0
VERTEX
  5
9E
  8
LAYER_01
 10
-29.54280411944032
 20
-49.77674890334339
 30
0.0
  0
VERTEX
  5
9F
  8
LAYER_01
 10
-33.48315643982656
 20
-52.05171237622045
 30
0.0
  0
VERTEX
  5
A0
  8
LAYER_01
 10
-39.05530859690869
 20
-52.05171237622062
 30
0.0
  0
VERTEX
  5
A1
  8
LAYER_01
 10
-42.99566091729506
 20
-49.7767489033435
 30
0.0
  0
VERTEX
  5
A2
  8
LAYER_01
 10
-49.76605806137584
 20
-43.00635175926277
 30
0.0
  0
VERTEX
  5
A3
  8
LAYER_01
 10
-52.04102153425269
 20
-39.06599943887636
 30
0.0
  0
SEQEND
  5
A4
  8
LAYER_01
  0
POLYLINE
  5
A5
  8
LAYER_01
 66
     1
 10
0.0
 20
0.0
 30
0.0
 70
     1
  0
VERTEX
  5
A6
  8
LAYER_01
 10
52.04102151265218
 20
-33.49384728179456
 30
0.0
  0
VERTEX
  5
A7
  8
LAYER_01
 10
49.7660580397754
 20
-29.55349496140815
 30
0.0
  0
VERTEX
  5
A8
  8
LAYER_01
 10
39.49548232882114
 20
-19.28291925045403
 30
0.0
  0
VERTEX
  5
A9
  8
LAYER_01
 10
35.55513000843487
 20
-17.00795577757697
 30
0.0
  0
VERTEX
  5
AA
  8
LAYER_01
 10
29.98297785135279
 20
-17.00795577757697
 30
0.0
  0
VERTEX
  5
AB
  8
LAYER_01
 10
26.04262553096646
 20
-19.28291925045409
 30
0.0
  0
VERTEX
  5
AC
  8
LAYER_01
 10
19.27222838688604
 20
-26.05331639453465
 30
0.0
  0
VERTEX
  5
AD
  8
LAYER_01
 10
16.99726491400888
 20
-29.99366871492077
 30
0.0
  0
VERTEX
  5
AE
  8
LAYER_01
 10
16.99726491400888
 20
-35.56582087200314
 30
0.0
  0
VERTEX
  5
AF
  8
LAYER_01
 10
19.27222838688604
 20
-39.50617319238933
 30
0.0
  0
VERTEX
  5
B0
  8
LAYER_01
 10
29.54280409783991
 20
-49.77674890334328
 30
0.0
  0
VERTEX
  5
B1
  8
LAYER_01
 10
33.48315641822626
 20
-52.05171237622034
 30
0.0
  0
VERTEX
  5
B2
  8
LAYER_01
 10
39.05530857530837
 20
-52.05171237622034
 30
0.0
  0
VERTEX
  5
B3
  8
LAYER_01
 10
42.99566089569458
 20
-49.77674890334322
 30
0.0
  0
VERTEX
  5
B4
  8
LAYER_01
 10
49.7660580397754
 20
-43.00635175926249
 30
0.0
  0
VERTEX
  5
B5
  8
LAYER_01
 10
52.04102151265218
 20
-39.06599943887608
 30
0.0
  0
SEQEND
  5
B6
  8
LAYER_01
  0
POLYLINE
  5
B7
  8
LAYER_01
 66
     1
 10
0.0
 20
0.0
 30
0.0
 70
     1
  0
VERTEX
  5
B8
  8
LAYER_01
 10
-44.04102153425271
 20
35.63743970901197
 30
0.0
  0
VERTEX
  5
B9
  8
LAYER_01
 10
-43.36446482144984
 20
34.4656091082355
 30
0.0
  0
VERTEX
  5
BA
  8
LAYER_01
 10
-34.5833670913629
 20
25.68451137814858
 30
0.0
  0
VERTEX
  5
BB
  8
LAYER_01
 10
-33.4115364905864
 20
25.00795466534561
 30
0.0
  0
VERTEX
  5
BC
  8
LAYER_01
 10
-32.12657141240243
 20
25.00795466534558
 30
0.0
  0
VERTEX
  5
BD
  8
LAYER_01
 10
-30.95474081162595
 20
25.68451137814856
 30
0.0
  0
VERTEX
  5
BE
  8
LAYER_01
 10
-25.67382164841239
 20
30.96543054136214
 30
0.0
  0
VERTEX
  5
BF
  8
LAYER_01
 10
-24.99726493560942
 20
32.13726114213853
 30
0.0
  0
VERTEX
  5
C0
  8
LAYER_01
 10
-24.99726493560942
 20
33.42222622032256
 30
0.0
  0
VERTEX
  5
C1
  8
LAYER_01
 10
-25.67382164841237
 20
34.59405682109897
 30
0.0
  0
VERTEX
  5
C2
  8
LAYER_01
 10
-34.45491937849926
 20
43.37515455118603
 30
0.0
  0
VERTEX
  5
C3
  8
LAYER_01
 10
-35.62674997927573
 20
44.05171126398901
 30
0.0
  0
VERTEX
  5
C4
  8
LAYER_01
 10
-36.91171505745972
 20
44.05171126398901
 30
0.0
  0
VERTEX
  5
C5
  8
LAYER_01
 10
-38.08354565823619
 20
43.37515455118606
 30
0.0
  0
VERTEX
  5
C6
  8
LAYER_01
 10
-43.36446482144983
 20
38.09423538797245
 30
0.0
  0
VERTEX
  5
C7
  8
LAYER_01
 10
-44.0410215342527
 20
36.922404787196
 30
0.0
  0
SEQEND
  5
C8
  8
LAYER_01
  0
POLYLINE
  5
C9
  8
LAYER_01
 66
     1
 10
0.0
 20
0.0
 30
0.0
 70
     1
  0
VERTEX
  5
CA
  8
LAYER_01
 10
44.04102151265218
 20
35.6374397090118
 30
0.0
  0
VERTEX
  5
CB
  8
LAYER_01
 10
43.36446479984932
 20
34.4656091082353
 30
0.0
  0
VERTEX
  5
CC
  8
LAYER_01
 10
34.58336706976226
 20
25.68451137814839
 30
0.0
  0
VERTEX
  5
CD
  8
LAYER_01
 10
33.41153646898582
 20
25.00795466534544
 30
0.0
  0
VERTEX
  5
CE
  8
LAYER_01
 10
32.12657139080184
 20
25.00795466534544
 30
0.0
  0
VERTEX
  5
CF
  8
LAYER_01
 10
30.95474079002537
 20
25.68451137814839
 30
0.0
  0
VERTEX
  5
D0
  8
LAYER_01
 10
25.67382162681183
 20
30.96543054136202
 30
0.0
  0
VERTEX
  5
D1
  8
LAYER_01
 10
24.99726491400888
 20
32.13726114213841
 30
0.0
  0
VERTEX
  5
D2
  8
LAYER_01
 10
24.99726491400888
 20
33.42222622032244
 30
0.0
  0
VERTEX
  5
D3
  8
LAYER_01
 10
25.67382162681183
 20
34.59405682109883
 30
0.0
  0
VERTEX
  5
D4
  8
LAYER_01
 10
34.45491935689881
 20
43.37515455118591
 30
0.0
  0
VERTEX
  5
D5
  8
LAYER_01
 10
35.62674995767523
 20
44.05171126398884
 30
0.0
  0
VERTEX
  5
D6
  8
LAYER_01
 10
36.9117150358592
 20
44.05171126398884
 30
0.0
  0
VERTEX
  5
D7
  8
LAYER_01
 10
38.08354563663568
 20
43.37515455118586
 30
0.0
  0
VERTEX
  5
D8
  8
LAYER_01
 10
43.36446479984929
 20
38.09423538797228
 30
0.0
  0
VERTEX
  5
D9
  8
LAYER_01
 10
44.04102151265218
 20
36.92240478719577
 30
0.0
  0
SEQEND
  5
DA
  8
LAYER_01
  0
POLYLINE
  5
DB
  8
LAYER_01
 66
     1
 10
0.0
 20
0.0
 30
0.0
 70
     1
  0
VERTEX
  5
DC
  8
LAYER_01
 10
44.04102151265218
 20
-35.63744082124333
 30
0.0
  0
VERTEX
  5
DD
  8
LAYER_01
 10
43.36446479984932
 20
-34.46561022046683
 30
0.0
  0
VERTEX
  5
DE
  8
LAYER_01
 10
34.58336706976229
 20
-25.68451249037992
 30
0.0
  0
VERTEX
  5
DF
  8
LAYER_01
 10
33.41153646898582
 20
-25.00795577757697
 30
0.0
  0
VERTEX
  5
E0
  8
LAYER_01
 10
32.12657139080184
 20
-25.00795577757697
 30
0.0
  0
VERTEX
  5
E1
  8
LAYER_01
 10
30.95474079002537
 20
-25.68451249037992
 30
0.0
  0
VERTEX
  5
E2
  8
LAYER_01
 10
25.67382162681184
 20
-30.96543165359355
 30
0.0
  0
VERTEX
  5
E3
  8
LAYER_01
 10
24.99726491400888
 20
-32.13726225436994
 30
0.0
  0
VERTEX
  5
E4
  8
LAYER_01
 10
24.99726491400888
 20
-33.42222733255397
 30
0.0
  0
VERTEX
  5
E5
  8
LAYER_01
 10
25.67382162681184
 20
-34.59405793333036
 30
0.0
  0
VERTEX
  5
E6
  8
LAYER_01
 10
34.45491935689878
 20
-43.37515566341739
 30
0.0
  0
VERTEX
  5
E7
  8
LAYER_01
 10
35.62674995767526
 20
-44.05171237622034
 30
0.0
  0
VERTEX
  5
E8
  8
LAYER_01
 10
36.91171503585923
 20
-44.05171237622034
 30
0.0
  0
VERTEX
  5
E9
  8
LAYER_01
 10
38.08354563663568
 20
-43.37515566341739
 30
0.0
  0
VERTEX
  5
EA
  8
LAYER_01
 10
43.36446479984932
 20
-38.09423650020381
 30
0.0
  0
VERTEX
  5
EB
  8
LAYER_01
 10
44.04102151265218
 20
-36.9224058994273
 30
0.0
  0
SEQEND
  5
EC
  8
LAYER_01
  0
POLYLINE
  5
ED
  8
LAYER_01
 66
     1
 10
0.0
 20
0.0
 30
0.0
 70
     1
  0
VERTEX
  5
EE
  8
LAYER_01
 10
-44.04102153425271
 20
-35.6374408212435
 30
0.0
  0
VERTEX
  5
EF
  8
LAYER_01
 10
-43.36446482144984
 20
-34.46561022046706
 30
0.0
  0
VERTEX
  5
F0
  8
LAYER_01
 10
-34.58336709136289
 20
-25.68451249038009
 30
0.0
  0
VERTEX
  5
F1
  8
LAYER_01
 10
-33.4115364905864
 20
-25.00795577757714
 30
0.0
  0
VERTEX
  5
F2
  8
LAYER_01
 10
-32.12657141240243
 20
-25.00795577757714
 30
0.0
  0
VERTEX
  5
F3
  8
LAYER_01
 10
-30.95474081162594
 20
-25.68451249038009
 30
0.0
  0
VERTEX
  5
F4
  8
LAYER_01
 10
-25.67382164841239
 20
-30.96543165359373
 30
0.0
  0
VERTEX
  5
F5
  8
LAYER_01
 10
-24.99726493560942
 20
-32.13726225437006
 30
0.0
  0
VERTEX
  5
F6
  8
LAYER_01
 10
-24.99726493560942
 20
-33.42222733255409
 30
0.0
  0
VERTEX
  5
F7
  8
LAYER_01
 10
-25.67382164841237
 20
-34.59405793333048
 30
0.0
  0
VERTEX
  5
F8
  8
LAYER_01
 10
-34.45491937849926
 20
-43.37515566341756
 30
0.0
  0
VERTEX
  5
F9
  8
LAYER_01
 10
-35.62674997927573
 20
-44.05171237622056
 30
0.0
  0
VERTEX
  5
FA
  8
LAYER_01
 10
-36.9117150574597
 20
-44.05171237622056
 30
0.0
  0
VERTEX
  5
FB
  8
LAYER_01
 10
-38.08354565823619
 20
-43.37515566341762
 30
0.0
  0
VERTEX
  5
FC
  8
LAYER_01
 10
-43.36446482144981
 20
-38.09423650020403
 30
0.0
  0
VERTEX
  5
FD
  8
LAYER_01
 10
-44.0410215342527
 20
-36.92240589942753
 30
0.0
  0
SEQEND
  5
FE
  8
LAYER_01
  0
CIRCLE
  5
FF
  8
LAYER_01
 10
-0.0000000000000142
 20
0.0
 30
0.0
 40
0.5
  0
ENDSEC
  0
EOF
