  0
SECTION
  2
HEADER
  9
$ACADVER
  1
AC1009
  9
$DWGCODEPAGE
  3
ansi_1252
  9
$INSBASE
 10
0.0
 20
0.0
 30
0.0
  9
$EXTMIN
 10
-54.04808641329918
 20
-193.1332070239288
 30
0.0
  9
$EXTMAX
 10
54.04808641329942
 20
-85.03703419733043
 30
0.0
  9
$LIMMIN
 10
0.0
 20
0.0
  9
$LIMMAX
 10
12.0
 20
9.0
  9
$ORTHOMODE
 70
     0
  9
$REGENMODE
 70
     1
  9
$FILLMODE
 70
     1
  9
$QTEXTMODE
 70
     0
  9
$MIRRTEXT
 70
     1
  9
$DRAGMODE
 70
     2
  9
$LTSCALE
 40
1.0
  9
$OSMODE
 70
    37
  9
$ATTMODE
 70
     1
  9
$TEXTSIZE
 40
0.2
  9
$TRACEWID
 40
0.05
  9
$TEXTSTYLE
  7
STANDARD
  9
$CLAYER
  8
MAIN
  9
$CELTYPE
  6
BYLAYER
  9
$CECOLOR
 62
   256
  9
$DIMSCALE
 40
1.0
  9
$DIMASZ
 40
0.18
  9
$DIMEXO
 40
0.0625
  9
$DIMDLI
 40
0.38
  9
$DIMRND
 40
0.0
  9
$DIMDLE
 40
0.0
  9
$DIMEXE
 40
0.18
  9
$DIMTP
 40
0.0
  9
$DIMTM
 40
0.0
  9
$DIMTXT
 40
0.18
  9
$DIMCEN
 40
0.09
  9
$DIMTSZ
 40
0.0
  9
$DIMTOL
 70
     0
  9
$DIMLIM
 70
     0
  9
$DIMTIH
 70
     1
  9
$DIMTOH
 70
     1
  9
$DIMSE1
 70
     0
  9
$DIMSE2
 70
     0
  9
$DIMTAD
 70
     0
  9
$DIMZIN
 70
     0
  9
$DIMBLK
  1

  9
$DIMASO
 70
     1
  9
$DIMSHO
 70
     1
  9
$DIMPOST
  1

  9
$DIMAPOST
  1

  9
$DIMALT
 70
     0
  9
$DIMALTD
 70
     2
  9
$DIMALTF
 40
25.4
  9
$DIMLFAC
 40
1.0
  9
$DIMTOFL
 70
     0
  9
$DIMTVP
 40
0.0
  9
$DIMTIX
 70
     0
  9
$DIMSOXD
 70
     0
  9
$DIMSAH
 70
     0
  9
$DIMBLK1
  1

  9
$DIMBLK2
  1

  9
$DIMSTYLE
  2
STANDARD
  9
$DIMCLRD
 70
     0
  9
$DIMCLRE
 70
     0
  9
$DIMCLRT
 70
     0
  9
$DIMTFAC
 40
1.0
  9
$DIMGAP
 40
0.09
  9
$LUNITS
 70
     2
  9
$LUPREC
 70
     3
  9
$SKETCHINC
 40
0.1
  9
$FILLETRAD
 40
0.5
  9
$AUNITS
 70
     0
  9
$AUPREC
 70
     0
  9
$MENU
  1
.
  9
$ELEVATION
 40
0.0
  9
$PELEVATION
 40
0.0
  9
$THICKNESS
 40
0.0
  9
$LIMCHECK
 70
     0
  9
$CHAMFERA
 40
0.0
  9
$CHAMFERB
 40
0.0
  9
$SKPOLY
 70
     0
  9
$TDCREATE
 40
2458897.607969768
  9
$TDUPDATE
 40
2458897.607992928
  9
$TDINDWG
 40
0.0000000116
  9
$TDUSRTIMER
 40
0.0000000116
  9
$USRTIMER
 70
     1
  9
$ANGBASE
 50
0.0
  9
$ANGDIR
 70
     0
  9
$PDMODE
 70
     0
  9
$PDSIZE
 40
0.0
  9
$PLINEWID
 40
0.0
  9
$COORDS
 70
     1
  9
$SPLFRAME
 70
     0
  9
$SPLINETYPE
 70
     6
  9
$SPLINESEGS
 70
     8
  9
$ATTDIA
 70
     0
  9
$ATTREQ
 70
     1
  9
$HANDLING
 70
     1
  9
$HANDSEED
  5
D3
  9
$SURFTAB1
 70
     6
  9
$SURFTAB2
 70
     6
  9
$SURFTYPE
 70
     6
  9
$SURFU
 70
     6
  9
$SURFV
 70
     6
  9
$UCSNAME
  2

  9
$UCSORG
 10
0.0
 20
0.0
 30
0.0
  9
$UCSXDIR
 10
1.0
 20
0.0
 30
0.0
  9
$UCSYDIR
 10
0.0
 20
1.0
 30
0.0
  9
$PUCSNAME
  2

  9
$PUCSORG
 10
0.0
 20
0.0
 30
0.0
  9
$PUCSXDIR
 10
1.0
 20
0.0
 30
0.0
  9
$PUCSYDIR
 10
0.0
 20
1.0
 30
0.0
  9
$USERI1
 70
     0
  9
$USERI2
 70
     0
  9
$USERI3
 70
     0
  9
$USERI4
 70
     0
  9
$USERI5
 70
     0
  9
$USERR1
 40
0.0
  9
$USERR2
 40
0.0
  9
$USERR3
 40
0.0
  9
$USERR4
 40
0.0
  9
$USERR5
 40
0.0
  9
$WORLDVIEW
 70
     1
  9
$SHADEDGE
 70
     3
  9
$SHADEDIF
 70
    70
  9
$TILEMODE
 70
     1
  9
$MAXACTVP
 70
    64
  9
$PLIMCHECK
 70
     0
  9
$PEXTMIN
 10
1.000000000000000E+20
 20
1.000000000000000E+20
 30
1.000000000000000E+20
  9
$PEXTMAX
 10
-1.000000000000000E+20
 20
-1.000000000000000E+20
 30
-1.000000000000000E+20
  9
$PLIMMIN
 10
0.0
 20
0.0
  9
$PLIMMAX
 10
12.0
 20
9.0
  9
$UNITMODE
 70
     0
  9
$VISRETAIN
 70
     1
  9
$PLINEGEN
 70
     0
  9
$PSLTSCALE
 70
     1
  0
ENDSEC
  0
SECTION
  2
TABLES
  0
TABLE
  2
VPORT
 70
     1
  0
VPORT
  2
*ACTIVE
 70
     0
 10
0.0
 20
0.0
 11
1.0
 21
1.0
 12
0.0000000000001208
 22
-139.0851206106296
 13
0.0
 23
0.0
 14
0.5
 24
0.5
 15
0.5
 25
0.5
 16
0.0
 26
0.0
 36
1.0
 17
0.0
 27
0.0
 37
0.0
 40
110.2580962831304
 41
1.000000000000002
 42
50.0
 43
0.0
 44
0.0
 50
0.0
 51
0.0
 71
     0
 72
   100
 73
     1
 74
     3
 75
     0
 76
     0
 77
     0
 78
     0
  0
ENDTAB
  0
TABLE
  2
LTYPE
 70
     1
  0
LTYPE
  2
CONTINUOUS
 70
     0
  3
Solid line
 72
    65
 73
     0
 40
0.0
  0
ENDTAB
  0
TABLE
  2
LAYER
 70
     2
  0
LAYER
  2
0
 70
     0
 62
     7
  6
CONTINUOUS
  0
LAYER
  2
MAIN
 70
     0
 62
     7
  6
CONTINUOUS
  0
ENDTAB
  0
TABLE
  2
STYLE
 70
     1
  0
STYLE
  2
STANDARD
 70
     0
 40
0.0
 41
1.0
 50
0.0
 71
     0
 42
0.2
  3
txt
  4

  0
ENDTAB
  0
TABLE
  2
VIEW
 70
     0
  0
ENDTAB
  0
TABLE
  2
UCS
 70
     0
  0
ENDTAB
  0
TABLE
  2
APPID
 70
     1
  0
APPID
  2
ACAD
 70
     0
  0
ENDTAB
  0
TABLE
  2
DIMSTYLE
 70
     1
  0
DIMSTYLE
  2
STANDARD
 70
     0
  3

  4

  5

  6

  7

 40
1.0
 41
0.18
 42
0.0625
 43
0.38
 44
0.18
 45
0.0
 46
0.0
 47
0.0
 48
0.0
140
0.18
141
0.09
142
0.0
143
25.4
144
1.0
145
0.0
146
1.0
147
0.09
 71
     0
 72
     0
 73
     1
 74
     1
 75
     0
 76
     0
 77
     0
 78
     0
170
     0
171
     2
172
     0
173
     0
174
     0
175
     0
176
     0
177
     0
178
     0
  0
ENDTAB
  0
ENDSEC
  0
SECTION
  2
BLOCKS
  0
BLOCK
  8
0
  2
$MODEL_SPACE
 70
     0
 10
0.0
 20
0.0
 30
0.0
  3
$MODEL_SPACE
  1

  0
ENDBLK
  5
21
  8
0
  0
BLOCK
 67
     1
  8
0
  2
$PAPER_SPACE
 70
     0
 10
0.0
 20
0.0
 30
0.0
  3
$PAPER_SPACE
  1

  0
ENDBLK
  5
1D
 67
     1
  8
0
  0
ENDSEC
  0
SECTION
  2
ENTITIES
  0
CIRCLE
  5
6F
  8
MAIN
 10
-48.08326112068506
 20
-170.5513723734311
 30
0.0
 40
1.650000000000039
  0
CIRCLE
  5
70
  8
MAIN
 10
-31.46625176280111
 20
-187.1683817313149
 30
0.0
 40
1.650000000000039
  0
CIRCLE
  5
71
  8
MAIN
 10
-20.22658296044262
 20
-170.6254120700573
 30
0.0
 40
1.650000000000039
  0
CIRCLE
  5
72
  8
MAIN
 10
-31.5402914594274
 20
-159.3117035710725
 30
0.0
 40
1.650000000000039
  0
CIRCLE
  5
73
  8
MAIN
 10
31.54029145942763
 20
-159.3117035710727
 30
0.0
 40
1.650000000000039
  0
CIRCLE
  5
74
  8
MAIN
 10
20.22658296044278
 20
-170.6254120700575
 30
0.0
 40
1.650000000000039
  0
CIRCLE
  5
75
  8
MAIN
 10
31.46625176280118
 20
-187.1683817313151
 30
0.0
 40
1.650000000000039
  0
CIRCLE
  5
76
  8
MAIN
 10
48.08326112068521
 20
-170.5513723734314
 30
0.0
 40
1.650000000000039
  0
CIRCLE
  5
77
  8
MAIN
 10
48.08326112068521
 20
-107.6188688478279
 30
0.0
 40
1.650000000000039
  0
CIRCLE
  5
78
  8
MAIN
 10
31.46625176280118
 20
-91.0018594899442
 30
0.0
 40
1.650000000000039
  0
CIRCLE
  5
79
  8
MAIN
 10
20.22658296044278
 20
-107.5448291512018
 30
0.0
 40
1.650000000000039
  0
CIRCLE
  5
7A
  8
MAIN
 10
31.54029145942763
 20
-118.8585376501866
 30
0.0
 40
1.650000000000039
  0
CIRCLE
  5
7B
  8
MAIN
 10
-31.5402914594274
 20
-118.8585376501867
 30
0.0
 40
1.650000000000039
  0
CIRCLE
  5
7C
  8
MAIN
 10
-20.22658296044262
 20
-107.544829151202
 30
0.0
 40
1.650000000000039
  0
CIRCLE
  5
7D
  8
MAIN
 10
-31.46625176280111
 20
-91.00185948994437
 30
0.0
 40
1.650000000000039
  0
CIRCLE
  5
7E
  8
MAIN
 10
-48.08326112068506
 20
-107.6188688478282
 30
0.0
 40
1.650000000000039
  0
CIRCLE
  5
7F
  8
MAIN
 10
0.000000000000167
 20
-139.0851206106296
 30
0.0
 40
14.50000000000005
  0
LINE
  5
80
  8
MAIN
 10
-48.54999999999984
 20
-139.0851206106296
 30
0.0
 11
-48.881188010801
 21
-146.7671239864522
 31
0.0
  0
LINE
  5
81
  8
MAIN
 10
-48.881188010801
 20
-146.7671239864522
 30
0.0
 11
-49.87229434604774
 21
-154.39212035346
 31
0.0
  0
LINE
  5
82
  8
MAIN
 10
-49.87229434604774
 20
-154.39212035346
 30
0.0
 11
-51.5159641524782
 21
-161.9035257434038
 31
0.0
  0
LINE
  5
83
  8
MAIN
 10
-51.5159641524782
 20
-161.9035257434038
 30
0.0
 11
-53.79999999999996
 21
-169.2455991298447
 31
0.0
  0
LINE
  5
84
  8
MAIN
 10
-53.79999999999996
 20
-169.2455991298447
 30
0.0
 11
-54.04211868445759
 21
-170.2719092931257
 31
0.0
  0
LINE
  5
85
  8
MAIN
 10
-54.04211868445759
 20
-170.2719092931257
 30
0.0
 11
-54.04808641329918
 21
-171.3263752218451
 31
0.0
  0
LINE
  5
86
  8
MAIN
 10
-54.04808641329918
 20
-171.3263752218451
 30
0.0
 11
-53.81759962995942
 21
-172.3553600863223
 31
0.0
  0
LINE
  5
87
  8
MAIN
 10
-53.81759962995942
 20
-172.3553600863223
 30
0.0
 11
-53.36238235510609
 21
-173.306523185529
 31
0.0
  0
LINE
  5
88
  8
MAIN
 10
-53.36238235510609
 20
-173.306523185529
 30
0.0
 11
-52.70558982853776
 21
-174.1314823273423
 31
0.0
  0
LINE
  5
89
  8
MAIN
 10
-52.70558982853776
 20
-174.1314823273423
 30
0.0
 11
-35.04636171671291
 21
-191.7907104391672
 31
0.0
  0
LINE
  5
8A
  8
MAIN
 10
-35.04636171671291
 20
-191.7907104391672
 30
0.0
 11
-34.22140257489969
 21
-192.4475029657357
 31
0.0
  0
LINE
  5
8B
  8
MAIN
 10
-34.22140257489969
 20
-192.4475029657357
 30
0.0
 11
-33.27023947569273
 21
-192.9027202405891
 31
0.0
  0
LINE
  5
8C
  8
MAIN
 10
-33.27023947569273
 20
-192.9027202405891
 30
0.0
 11
-32.24125461121548
 21
-193.1332070239288
 31
0.0
  0
LINE
  5
8D
  8
MAIN
 10
-32.24125461121548
 20
-193.1332070239288
 30
0.0
 11
-31.18678868249617
 21
-193.1272392950872
 31
0.0
  0
LINE
  5
8E
  8
MAIN
 10
-31.18678868249617
 20
-193.1272392950872
 30
0.0
 11
-30.16047851921508
 21
-192.8851206106296
 31
0.0
  0
LINE
  5
8F
  8
MAIN
 10
-30.16047851921508
 20
-192.8851206106296
 30
0.0
 11
-22.81840513277416
 21
-190.6010847631078
 31
0.0
  0
LINE
  5
90
  8
MAIN
 10
-22.81840513277416
 20
-190.6010847631078
 30
0.0
 11
-15.30699974283038
 21
-188.9574149566775
 31
0.0
  0
LINE
  5
91
  8
MAIN
 10
-15.30699974283038
 20
-188.9574149566775
 30
0.0
 11
-7.682003375822546
 21
-187.9663086214306
 31
0.0
  0
LINE
  5
92
  8
MAIN
 10
-7.682003375822546
 20
-187.9663086214306
 30
0.0
 11
0.0
 21
-187.6351206106296
 31
0.0
  0
LINE
  5
93
  8
MAIN
 10
0.0
 20
-187.6351206106296
 30
0.0
 11
7.682003375822774
 21
-187.9663086214306
 31
0.0
  0
LINE
  5
94
  8
MAIN
 10
7.682003375822774
 20
-187.9663086214306
 30
0.0
 11
15.30699974283061
 21
-188.9574149566775
 31
0.0
  0
LINE
  5
95
  8
MAIN
 10
15.30699974283061
 20
-188.9574149566775
 30
0.0
 11
22.81840513277439
 21
-190.6010847631078
 31
0.0
  0
LINE
  5
96
  8
MAIN
 10
22.81840513277439
 20
-190.6010847631078
 30
0.0
 11
30.1604785192153
 21
-192.8851206106296
 31
0.0
  0
LINE
  5
97
  8
MAIN
 10
30.1604785192153
 20
-192.8851206106296
 30
0.0
 11
31.1867886824964
 21
-193.1272392950872
 31
0.0
  0
LINE
  5
98
  8
MAIN
 10
31.1867886824964
 20
-193.1272392950872
 30
0.0
 11
32.24125461121571
 21
-193.1332070239288
 31
0.0
  0
LINE
  5
99
  8
MAIN
 10
32.24125461121571
 20
-193.1332070239288
 30
0.0
 11
33.27023947569296
 21
-192.9027202405891
 31
0.0
  0
LINE
  5
9A
  8
MAIN
 10
33.27023947569296
 20
-192.9027202405891
 30
0.0
 11
34.22140257489991
 21
-192.4475029657357
 31
0.0
  0
LINE
  5
9B
  8
MAIN
 10
34.22140257489991
 20
-192.4475029657357
 30
0.0
 11
35.04636171671314
 21
-191.7907104391672
 31
0.0
  0
LINE
  5
9C
  8
MAIN
 10
35.04636171671314
 20
-191.7907104391672
 30
0.0
 11
52.705589828538
 21
-174.1314823273423
 31
0.0
  0
LINE
  5
9D
  8
MAIN
 10
52.705589828538
 20
-174.1314823273423
 30
0.0
 11
53.36238235510631
 21
-173.306523185529
 31
0.0
  0
LINE
  5
9E
  8
MAIN
 10
53.36238235510631
 20
-173.306523185529
 30
0.0
 11
53.81759962995966
 21
-172.3553600863223
 31
0.0
  0
LINE
  5
9F
  8
MAIN
 10
53.81759962995966
 20
-172.3553600863223
 30
0.0
 11
54.04808641329942
 21
-171.3263752218451
 31
0.0
  0
LINE
  5
A0
  8
MAIN
 10
54.04808641329942
 20
-171.3263752218451
 30
0.0
 11
54.04211868445782
 21
-170.2719092931257
 31
0.0
  0
LINE
  5
A1
  8
MAIN
 10
54.04211868445782
 20
-170.2719092931257
 30
0.0
 11
53.80000000000018
 21
-169.2455991298447
 31
0.0
  0
LINE
  5
A2
  8
MAIN
 10
53.80000000000018
 20
-169.2455991298447
 30
0.0
 11
51.51596415247843
 21
-161.9035257434038
 31
0.0
  0
LINE
  5
A3
  8
MAIN
 10
51.51596415247843
 20
-161.9035257434038
 30
0.0
 11
49.87229434604797
 21
-154.39212035346
 31
0.0
  0
LINE
  5
A4
  8
MAIN
 10
49.87229434604797
 20
-154.39212035346
 30
0.0
 11
48.88118801080122
 21
-146.7671239864522
 31
0.0
  0
LINE
  5
A5
  8
MAIN
 10
48.88118801080122
 20
-146.7671239864522
 30
0.0
 11
48.55000000000018
 21
-139.0851206106296
 31
0.0
  0
LINE
  5
A6
  8
MAIN
 10
48.55000000000018
 20
-139.0851206106296
 30
0.0
 11
48.88118801080122
 21
-131.4031172348071
 31
0.0
  0
LINE
  5
A7
  8
MAIN
 10
48.88118801080122
 20
-131.4031172348071
 30
0.0
 11
49.87229434604797
 21
-123.7781208677992
 31
0.0
  0
LINE
  5
A8
  8
MAIN
 10
49.87229434604797
 20
-123.7781208677992
 30
0.0
 11
51.51596415247843
 21
-116.2667154778554
 31
0.0
  0
LINE
  5
A9
  8
MAIN
 10
51.51596415247843
 20
-116.2667154778554
 30
0.0
 11
53.80000000000018
 21
-108.9246420914145
 31
0.0
  0
LINE
  5
AA
  8
MAIN
 10
53.80000000000018
 20
-108.9246420914145
 30
0.0
 11
54.04211868445782
 21
-107.8983319281335
 31
0.0
  0
LINE
  5
AB
  8
MAIN
 10
54.04211868445782
 20
-107.8983319281335
 30
0.0
 11
54.04808641329942
 21
-106.8438659994141
 31
0.0
  0
LINE
  5
AC
  8
MAIN
 10
54.04808641329942
 20
-106.8438659994141
 30
0.0
 11
53.81759962995966
 21
-105.8148811349369
 31
0.0
  0
LINE
  5
AD
  8
MAIN
 10
53.81759962995966
 20
-105.8148811349369
 30
0.0
 11
53.36238235510631
 21
-104.8637180357302
 31
0.0
  0
LINE
  5
AE
  8
MAIN
 10
53.36238235510631
 20
-104.8637180357302
 30
0.0
 11
52.705589828538
 21
-104.0387588939169
 31
0.0
  0
LINE
  5
AF
  8
MAIN
 10
52.705589828538
 20
-104.0387588939169
 30
0.0
 11
35.04636171671314
 21
-86.37953078209203
 31
0.0
  0
LINE
  5
B0
  8
MAIN
 10
35.04636171671314
 20
-86.37953078209203
 30
0.0
 11
34.22140257489991
 21
-85.72273825552352
 31
0.0
  0
LINE
  5
B1
  8
MAIN
 10
34.22140257489991
 20
-85.72273825552352
 30
0.0
 11
33.27023947569296
 21
-85.26752098067013
 31
0.0
  0
LINE
  5
B2
  8
MAIN
 10
33.27023947569296
 20
-85.26752098067013
 30
0.0
 11
32.24125461121571
 21
-85.03703419733043
 31
0.0
  0
LINE
  5
B3
  8
MAIN
 10
32.24125461121571
 20
-85.03703419733043
 30
0.0
 11
31.1867886824964
 21
-85.04300192617202
 31
0.0
  0
LINE
  5
B4
  8
MAIN
 10
31.1867886824964
 20
-85.04300192617202
 30
0.0
 11
30.1604785192153
 21
-85.28512061062963
 31
0.0
  0
LINE
  5
B5
  8
MAIN
 10
30.1604785192153
 20
-85.28512061062963
 30
0.0
 11
22.81840513277439
 21
-87.56915645815141
 31
0.0
  0
LINE
  5
B6
  8
MAIN
 10
22.81840513277439
 20
-87.56915645815141
 30
0.0
 11
15.30699974283061
 21
-89.21282626458174
 31
0.0
  0
LINE
  5
B7
  8
MAIN
 10
15.30699974283061
 20
-89.21282626458174
 30
0.0
 11
7.682003375822774
 21
-90.20393259982863
 31
0.0
  0
LINE
  5
B8
  8
MAIN
 10
7.682003375822774
 20
-90.20393259982863
 30
0.0
 11
0.0000000000002274
 21
-90.53512061062963
 31
0.0
  0
LINE
  5
B9
  8
MAIN
 10
0.0000000000002274
 20
-90.53512061062963
 30
0.0
 11
-7.682003375822433
 21
-90.20393259982863
 31
0.0
  0
LINE
  5
BA
  8
MAIN
 10
-7.682003375822433
 20
-90.20393259982863
 30
0.0
 11
-15.30699974283016
 21
-89.21282626458174
 31
0.0
  0
LINE
  5
BB
  8
MAIN
 10
-15.30699974283016
 20
-89.21282626458174
 30
0.0
 11
-22.81840513277393
 21
-87.56915645815141
 31
0.0
  0
LINE
  5
BC
  8
MAIN
 10
-22.81840513277393
 20
-87.56915645815141
 30
0.0
 11
-30.16047851921485
 21
-85.28512061062963
 31
0.0
  0
LINE
  5
BD
  8
MAIN
 10
-30.16047851921485
 20
-85.28512061062963
 30
0.0
 11
-31.18678868249594
 21
-85.04300192617202
 31
0.0
  0
LINE
  5
BE
  8
MAIN
 10
-31.18678868249594
 20
-85.04300192617202
 30
0.0
 11
-32.24125461121548
 21
-85.03703419733043
 31
0.0
  0
LINE
  5
BF
  8
MAIN
 10
-32.24125461121548
 20
-85.03703419733043
 30
0.0
 11
-33.27023947569273
 21
-85.26752098067013
 31
0.0
  0
LINE
  5
C0
  8
MAIN
 10
-33.27023947569273
 20
-85.26752098067013
 30
0.0
 11
-34.22140257489946
 21
-85.72273825552352
 31
0.0
  0
LINE
  5
C1
  8
MAIN
 10
-34.22140257489946
 20
-85.72273825552352
 30
0.0
 11
-35.04636171671279
 21
-86.37953078209203
 31
0.0
  0
LINE
  5
C2
  8
MAIN
 10
-35.04636171671279
 20
-86.37953078209203
 30
0.0
 11
-52.70558982853754
 21
-104.0387588939169
 31
0.0
  0
LINE
  5
C3
  8
MAIN
 10
-52.70558982853754
 20
-104.0387588939169
 30
0.0
 11
-53.36238235510598
 21
-104.8637180357302
 31
0.0
  0
LINE
  5
C4
  8
MAIN
 10
-53.36238235510598
 20
-104.8637180357302
 30
0.0
 11
-53.81759962995942
 21
-105.8148811349369
 31
0.0
  0
LINE
  5
C5
  8
MAIN
 10
-53.81759962995942
 20
-105.8148811349369
 30
0.0
 11
-54.04808641329896
 21
-106.8438659994141
 31
0.0
  0
LINE
  5
C6
  8
MAIN
 10
-54.04808641329896
 20
-106.8438659994141
 30
0.0
 11
-54.04211868445747
 21
-107.8983319281335
 31
0.0
  0
LINE
  5
C7
  8
MAIN
 10
-54.04211868445747
 20
-107.8983319281335
 30
0.0
 11
-53.79999999999973
 21
-108.9246420914145
 31
0.0
  0
LINE
  5
C8
  8
MAIN
 10
-53.79999999999973
 20
-108.9246420914145
 30
0.0
 11
-51.51596415247809
 21
-116.2667154778554
 31
0.0
  0
LINE
  5
C9
  8
MAIN
 10
-51.51596415247809
 20
-116.2667154778554
 30
0.0
 11
-49.87229434604774
 21
-123.7781208677992
 31
0.0
  0
LINE
  5
CA
  8
MAIN
 10
-49.87229434604774
 20
-123.7781208677992
 30
0.0
 11
-48.88118801080088
 21
-131.4031172348071
 31
0.0
  0
LINE
  5
CB
  8
MAIN
 10
-48.88118801080088
 20
-131.4031172348071
 30
0.0
 11
-48.54999999999984
 21
-139.0851206106296
 31
0.0
  0
ENDSEC
  0
EOF
