  0
SECTION
  2
HEADER
  9
$ACADVER
  1
AC1009
  9
$DWGCODEPAGE
  3
ansi_1252
  9
$INSBASE
 10
0.0
 20
0.0
 30
0.0
  9
$EXTMIN
 10
-70.29160736992338
 20
-54.05000044953478
 30
0.0
  9
$EXTMAX
 10
70.29160736992338
 20
54.05000044953483
 30
0.0
  9
$LIMMIN
 10
0.0
 20
0.0
  9
$LIMMAX
 10
12.0
 20
9.0
  9
$ORTHOMODE
 70
     0
  9
$REGENMODE
 70
     1
  9
$FILLMODE
 70
     1
  9
$QTEXTMODE
 70
     0
  9
$MIRRTEXT
 70
     1
  9
$DRAGMODE
 70
     2
  9
$LTSCALE
 40
1.0
  9
$OSMODE
 70
    37
  9
$ATTMODE
 70
     1
  9
$TEXTSIZE
 40
0.2
  9
$TRACEWID
 40
0.05
  9
$TEXTSTYLE
  7
STANDARD
  9
$CLAYER
  8
LAYER_01
  9
$CELTYPE
  6
BYLAYER
  9
$CECOLOR
 62
   256
  9
$DIMSCALE
 40
1.0
  9
$DIMASZ
 40
0.18
  9
$DIMEXO
 40
0.0625
  9
$DIMDLI
 40
0.38
  9
$DIMRND
 40
0.0
  9
$DIMDLE
 40
0.0
  9
$DIMEXE
 40
0.18
  9
$DIMTP
 40
0.0
  9
$DIMTM
 40
0.0
  9
$DIMTXT
 40
0.18
  9
$DIMCEN
 40
0.09
  9
$DIMTSZ
 40
0.0
  9
$DIMTOL
 70
     0
  9
$DIMLIM
 70
     0
  9
$DIMTIH
 70
     1
  9
$DIMTOH
 70
     1
  9
$DIMSE1
 70
     0
  9
$DIMSE2
 70
     0
  9
$DIMTAD
 70
     0
  9
$DIMZIN
 70
     0
  9
$DIMBLK
  1

  9
$DIMASO
 70
     1
  9
$DIMSHO
 70
     1
  9
$DIMPOST
  1

  9
$DIMAPOST
  1

  9
$DIMALT
 70
     0
  9
$DIMALTD
 70
     2
  9
$DIMALTF
 40
25.4
  9
$DIMLFAC
 40
1.0
  9
$DIMTOFL
 70
     0
  9
$DIMTVP
 40
0.0
  9
$DIMTIX
 70
     0
  9
$DIMSOXD
 70
     0
  9
$DIMSAH
 70
     0
  9
$DIMBLK1
  1

  9
$DIMBLK2
  1

  9
$DIMSTYLE
  2
STANDARD
  9
$DIMCLRD
 70
     0
  9
$DIMCLRE
 70
     0
  9
$DIMCLRT
 70
     0
  9
$DIMTFAC
 40
1.0
  9
$DIMGAP
 40
0.09
  9
$LUNITS
 70
     2
  9
$LUPREC
 70
     3
  9
$SKETCHINC
 40
0.1
  9
$FILLETRAD
 40
0.5
  9
$AUNITS
 70
     0
  9
$AUPREC
 70
     0
  9
$MENU
  1
.
  9
$ELEVATION
 40
0.0
  9
$PELEVATION
 40
0.0
  9
$THICKNESS
 40
0.0
  9
$LIMCHECK
 70
     0
  9
$CHAMFERA
 40
0.0
  9
$CHAMFERB
 40
0.0
  9
$SKPOLY
 70
     0
  9
$TDCREATE
 40
2458904.664172778
  9
$TDUPDATE
 40
2458904.664184757
  9
$TDINDWG
 40
0.0000000116
  9
$TDUSRTIMER
 40
0.0000000116
  9
$USRTIMER
 70
     1
  9
$ANGBASE
 50
0.0
  9
$ANGDIR
 70
     0
  9
$PDMODE
 70
     0
  9
$PDSIZE
 40
0.0
  9
$PLINEWID
 40
0.0
  9
$COORDS
 70
     1
  9
$SPLFRAME
 70
     0
  9
$SPLINETYPE
 70
     6
  9
$SPLINESEGS
 70
     8
  9
$ATTDIA
 70
     0
  9
$ATTREQ
 70
     1
  9
$HANDLING
 70
     1
  9
$HANDSEED
  5
114
  9
$SURFTAB1
 70
     6
  9
$SURFTAB2
 70
     6
  9
$SURFTYPE
 70
     6
  9
$SURFU
 70
     6
  9
$SURFV
 70
     6
  9
$UCSNAME
  2

  9
$UCSORG
 10
0.0
 20
0.0
 30
0.0
  9
$UCSXDIR
 10
1.0
 20
0.0
 30
0.0
  9
$UCSYDIR
 10
0.0
 20
1.0
 30
0.0
  9
$PUCSNAME
  2

  9
$PUCSORG
 10
0.0
 20
0.0
 30
0.0
  9
$PUCSXDIR
 10
1.0
 20
0.0
 30
0.0
  9
$PUCSYDIR
 10
0.0
 20
1.0
 30
0.0
  9
$USERI1
 70
     0
  9
$USERI2
 70
     0
  9
$USERI3
 70
     0
  9
$USERI4
 70
     0
  9
$USERI5
 70
     0
  9
$USERR1
 40
0.0
  9
$USERR2
 40
0.0
  9
$USERR3
 40
0.0
  9
$USERR4
 40
0.0
  9
$USERR5
 40
0.0
  9
$WORLDVIEW
 70
     1
  9
$SHADEDGE
 70
     3
  9
$SHADEDIF
 70
    70
  9
$TILEMODE
 70
     1
  9
$MAXACTVP
 70
    64
  9
$PLIMCHECK
 70
     0
  9
$PEXTMIN
 10
1.000000000000000E+20
 20
1.000000000000000E+20
 30
1.000000000000000E+20
  9
$PEXTMAX
 10
-1.000000000000000E+20
 20
-1.000000000000000E+20
 30
-1.000000000000000E+20
  9
$PLIMMIN
 10
0.0
 20
0.0
  9
$PLIMMAX
 10
12.0
 20
9.0
  9
$UNITMODE
 70
     0
  9
$VISRETAIN
 70
     1
  9
$PLINEGEN
 70
     0
  9
$PSLTSCALE
 70
     1
  0
ENDSEC
  0
SECTION
  2
TABLES
  0
TABLE
  2
VPORT
 70
     1
  0
VPORT
  2
*ACTIVE
 70
     0
 10
0.0
 20
0.0
 11
1.0
 21
1.0
 12
0.0
 22
0.0
 13
0.0
 23
0.0
 14
0.5
 24
0.5
 15
0.5
 25
0.5
 16
0.0
 26
0.0
 36
1.0
 17
0.0
 27
0.0000000000000284
 37
0.0
 40
110.262000917051
 41
1.30049226244786
 42
50.0
 43
0.0
 44
0.0
 50
0.0
 51
0.0
 71
     0
 72
   100
 73
     1
 74
     3
 75
     0
 76
     0
 77
     0
 78
     0
  0
ENDTAB
  0
TABLE
  2
LTYPE
 70
     1
  0
LTYPE
  2
CONTINUOUS
 70
     0
  3
Solid line
 72
    65
 73
     0
 40
0.0
  0
ENDTAB
  0
TABLE
  2
LAYER
 70
     3
  0
LAYER
  2
0
 70
     0
 62
     7
  6
CONTINUOUS
  0
LAYER
  2
LAYER_01
 70
     0
 62
     7
  6
CONTINUOUS
  0
LAYER
  2
BOARD-OUTLINE
 70
     0
 62
     7
  6
CONTINUOUS
  0
ENDTAB
  0
TABLE
  2
STYLE
 70
     1
  0
STYLE
  2
STANDARD
 70
     0
 40
0.0
 41
1.0
 50
0.0
 71
     0
 42
0.2
  3
txt
  4

  0
ENDTAB
  0
TABLE
  2
VIEW
 70
     0
  0
ENDTAB
  0
TABLE
  2
UCS
 70
     0
  0
ENDTAB
  0
TABLE
  2
APPID
 70
     1
  0
APPID
  2
ACAD
 70
     0
  0
ENDTAB
  0
TABLE
  2
DIMSTYLE
 70
     1
  0
DIMSTYLE
  2
STANDARD
 70
     0
  3

  4

  5

  6

  7

 40
1.0
 41
0.18
 42
0.0625
 43
0.38
 44
0.18
 45
0.0
 46
0.0
 47
0.0
 48
0.0
140
0.18
141
0.09
142
0.0
143
25.4
144
1.0
145
0.0
146
1.0
147
0.09
 71
     0
 72
     0
 73
     1
 74
     1
 75
     0
 76
     0
 77
     0
 78
     0
170
     0
171
     2
172
     0
173
     0
174
     0
175
     0
176
     0
177
     0
178
     0
  0
ENDTAB
  0
ENDSEC
  0
SECTION
  2
BLOCKS
  0
BLOCK
  8
0
  2
$MODEL_SPACE
 70
     0
 10
0.0
 20
0.0
 30
0.0
  3
$MODEL_SPACE
  1

  0
ENDBLK
  5
21
  8
0
  0
BLOCK
 67
     1
  8
0
  2
$PAPER_SPACE
 70
     0
 10
0.0
 20
0.0
 30
0.0
  3
$PAPER_SPACE
  1

  0
ENDBLK
  5
1D
 67
     1
  8
0
  0
ENDSEC
  0
SECTION
  2
ENTITIES
  0
CIRCLE
  5
6F
  8
LAYER_01
 10
0.0
 20
-0.0000000000000639
 30
0.0
 40
0.5
  0
CIRCLE
  5
70
  8
LAYER_01
 10
-32.03193770696566
 20
46.52762572219781
 30
0.0
 40
1.649999999999999
  0
CIRCLE
  5
71
  8
LAYER_01
 10
-46.52762672128986
 20
-32.03193766762795
 30
0.0
 40
1.649999999999999
  0
CIRCLE
  5
72
  8
LAYER_01
 10
-32.04930248584027
 20
-46.51026190307664
 30
0.0
 40
1.649999999999999
  0
CIRCLE
  5
73
  8
LAYER_01
 10
32.04930248584026
 20
-46.51026190307664
 30
0.0
 40
1.649999999999999
  0
CIRCLE
  5
74
  8
LAYER_01
 10
46.52762672128986
 20
-32.03193766762796
 30
0.0
 40
1.649999999999999
  0
CIRCLE
  5
75
  8
LAYER_01
 10
46.5276267212914
 20
32.03193670787137
 30
0.0
 40
1.649999999999991
  0
CIRCLE
  5
76
  8
LAYER_01
 10
32.03193770696566
 20
46.52762572219781
 30
0.0
 40
1.649999999999999
  0
CIRCLE
  5
77
  8
LAYER_01
 10
-46.5276267212914
 20
32.03193670787136
 30
0.0
 40
1.650000000000006
  0
CIRCLE
  5
79
  8
BOARD-OUTLINE
 10
-20.22658199999998
 20
31.54029052012284
 30
0.0
 40
1.65000000000002
  0
CIRCLE
  5
7A
  8
BOARD-OUTLINE
 10
-31.540291
 20
20.22658252012286
 30
0.0
 40
1.650000000000006
  0
CIRCLE
  5
7B
  8
BOARD-OUTLINE
 10
31.540291
 20
-20.22658347987712
 30
0.0
 40
1.650000000000006
  0
CIRCLE
  5
7C
  8
BOARD-OUTLINE
 10
20.226582
 20
-31.54029247987715
 30
0.0
 40
1.650000000000016
  0
CIRCLE
  5
7D
  8
BOARD-OUTLINE
 10
-31.540291
 20
-20.22658347987712
 30
0.0
 40
1.650000000000006
  0
CIRCLE
  5
7E
  8
BOARD-OUTLINE
 10
-20.22658199999998
 20
-31.54029247987715
 30
0.0
 40
1.650000000000016
  0
CIRCLE
  5
7F
  8
BOARD-OUTLINE
 10
31.540291
 20
20.22658252012286
 30
0.0
 40
1.650000000000006
  0
CIRCLE
  5
80
  8
BOARD-OUTLINE
 10
20.226582
 20
31.54029052012284
 30
0.0
 40
1.650000000000016
  0
POLYLINE
  5
81
  8
LAYER_01
 66
     1
 10
0.0
 20
0.0
 30
0.0
 70
     1
  0
VERTEX
  5
82
  8
LAYER_01
 10
31.69671942153389
 20
-54.05000044953441
 30
0.0
  0
VERTEX
  5
83
  8
LAYER_01
 10
-31.69671942153329
 20
-54.05000044953478
 30
0.0
 42
-0.1931898451321402
  0
VERTEX
  5
84
  8
LAYER_01
 10
-35.04636099999975
 20
-52.70559047987693
 30
0.0
  0
VERTEX
  5
85
  8
LAYER_01
 10
-52.705589
 20
-35.04636247987713
 30
0.0
  0
VERTEX
  5
86
  8
LAYER_01
 10
-54.42887282745505
 20
-33.27428029012821
 30
0.0
  0
VERTEX
  5
87
  8
LAYER_01
 10
-56.11949405929559
 20
-31.42123381678379
 30
0.0
  0
VERTEX
  5
88
  8
LAYER_01
 10
-57.76661874660088
 20
-29.49262067875025
 30
0.0
  0
VERTEX
  5
89
  8
LAYER_01
 10
-59.35941294045017
 20
-27.49383849493394
 30
0.0
  0
VERTEX
  5
8A
  8
LAYER_01
 10
-60.13205049329108
 20
-26.46982076676549
 30
0.0
  0
VERTEX
  5
8B
  8
LAYER_01
 10
-60.88704269192272
 20
-25.43028488424123
 30
0.0
  0
VERTEX
  5
8C
  8
LAYER_01
 10
-61.62303529272999
 20
-24.37590554972446
 30
0.0
  0
VERTEX
  5
8D
  8
LAYER_01
 10
-62.33867405209779
 20
-23.30735746557849
 30
0.0
  0
VERTEX
  5
8E
  8
LAYER_01
 10
-63.03260472641103
 20
-22.2253153341666
 30
0.0
  0
VERTEX
  5
8F
  8
LAYER_01
 10
-63.70347307205461
 20
-21.13045385785209
 30
0.0
  0
VERTEX
  5
90
  8
LAYER_01
 10
-64.34992484541345
 20
-20.02344773899826
 30
0.0
  0
VERTEX
  5
91
  8
LAYER_01
 10
-64.97060580287248
 20
-18.9049716799684
 30
0.0
  0
VERTEX
  5
92
  8
LAYER_01
 10
-65.56416170081658
 20
-17.7757003831258
 30
0.0
  0
VERTEX
  5
93
  8
LAYER_01
 10
-66.12923829563064
 20
-16.63630855083377
 30
0.0
  0
VERTEX
  5
94
  8
LAYER_01
 10
-66.6644813436996
 20
-15.48747088545559
 30
0.0
  0
VERTEX
  5
95
  8
LAYER_01
 10
-67.16853660140833
 20
-14.32986208935457
 30
0.0
  0
VERTEX
  5
96
  8
LAYER_01
 10
-67.6400498251418
 20
-13.16415686489401
 30
0.0
  0
VERTEX
  5
97
  8
LAYER_01
 10
-68.07766677128484
 20
-11.99102991443718
 30
0.0
  0
VERTEX
  5
98
  8
LAYER_01
 10
-68.48003319622242
 20
-10.8111559403474
 30
0.0
  0
VERTEX
  5
99
  8
LAYER_01
 10
-68.8457948563394
 20
-9.625209644987958
 30
0.0
  0
VERTEX
  5
9A
  8
LAYER_01
 10
-69.17359750802072
 20
-8.433865730722147
 30
0.0
  0
VERTEX
  5
9B
  8
LAYER_01
 10
-69.46208690765127
 20
-7.237798899913267
 30
0.0
  0
VERTEX
  5
9C
  8
LAYER_01
 10
-69.70990881161597
 20
-6.037683854924612
 30
0.0
  0
VERTEX
  5
9D
  8
LAYER_01
 10
-69.91570897629973
 20
-4.834195298119477
 30
0.0
  0
VERTEX
  5
9E
  8
LAYER_01
 10
-70.00242770528152
 20
-4.231396797274259
 30
0.0
  0
VERTEX
  5
9F
  8
LAYER_01
 10
-70.07813315808744
 20
-3.628007931861159
 30
0.0
  0
VERTEX
  5
A0
  8
LAYER_01
 10
-70.14265605426557
 20
-3.024113039675586
 30
0.0
  0
VERTEX
  5
A1
  8
LAYER_01
 10
-70.19582711336402
 20
-2.419796458512954
 30
0.0
  0
VERTEX
  5
A2
  8
LAYER_01
 10
-70.2374770549309
 20
-1.815142526168673
 30
0.0
  0
VERTEX
  5
A3
  8
LAYER_01
 10
-70.26743659851435
 20
-1.210235580438157
 30
0.0
  0
VERTEX
  5
A4
  8
LAYER_01
 10
-70.28553646366248
 20
-0.6051599591168163
 30
0.0
  0
VERTEX
  5
A5
  8
LAYER_01
 10
-70.29160736992338
 20
-0.0000000000000639
 30
0.0
  0
VERTEX
  5
A6
  8
LAYER_01
 10
-70.28553646366248
 20
0.6051599591166873
 30
0.0
  0
VERTEX
  5
A7
  8
LAYER_01
 10
-70.26743659851435
 20
1.210235580438026
 30
0.0
  0
VERTEX
  5
A8
  8
LAYER_01
 10
-70.2374770549309
 20
1.815142526168542
 30
0.0
  0
VERTEX
  5
A9
  8
LAYER_01
 10
-70.19582711336402
 20
2.419796458512821
 30
0.0
  0
VERTEX
  5
AA
  8
LAYER_01
 10
-70.14265605426557
 20
3.024113039675453
 30
0.0
  0
VERTEX
  5
AB
  8
LAYER_01
 10
-70.07813315808744
 20
3.628007931861025
 30
0.0
  0
VERTEX
  5
AC
  8
LAYER_01
 10
-70.00242770528152
 20
4.231396797274124
 30
0.0
  0
VERTEX
  5
AD
  8
LAYER_01
 10
-69.91570897629973
 20
4.83419529811934
 30
0.0
  0
VERTEX
  5
AE
  8
LAYER_01
 10
-69.70990881161597
 20
6.037683854924474
 30
0.0
  0
VERTEX
  5
AF
  8
LAYER_01
 10
-69.46208690765127
 20
7.237798899913127
 30
0.0
  0
VERTEX
  5
B0
  8
LAYER_01
 10
-69.17359750802072
 20
8.433865730722006
 30
0.0
  0
VERTEX
  5
B1
  8
LAYER_01
 10
-68.8457948563394
 20
9.625209644987814
 30
0.0
  0
VERTEX
  5
B2
  8
LAYER_01
 10
-68.48003319622242
 20
10.81115594034726
 30
0.0
  0
VERTEX
  5
B3
  8
LAYER_01
 10
-68.07766677128484
 20
11.99102991443704
 30
0.0
  0
VERTEX
  5
B4
  8
LAYER_01
 10
-67.6400498251418
 20
13.16415686489386
 30
0.0
  0
VERTEX
  5
B5
  8
LAYER_01
 10
-67.16853660140833
 20
14.32986208935443
 30
0.0
  0
VERTEX
  5
B6
  8
LAYER_01
 10
-66.6644813436996
 20
15.48747088545545
 30
0.0
  0
VERTEX
  5
B7
  8
LAYER_01
 10
-66.12923829563064
 20
16.63630855083362
 30
0.0
  0
VERTEX
  5
B8
  8
LAYER_01
 10
-65.56416170081658
 20
17.77570038312565
 30
0.0
  0
VERTEX
  5
B9
  8
LAYER_01
 10
-64.97060580287248
 20
18.90497167996825
 30
0.0
  0
VERTEX
  5
BA
  8
LAYER_01
 10
-64.34992484541345
 20
20.02344773899811
 30
0.0
  0
VERTEX
  5
BB
  8
LAYER_01
 10
-63.70347307205461
 20
21.13045385785194
 30
0.0
  0
VERTEX
  5
BC
  8
LAYER_01
 10
-63.03260472641103
 20
22.22531533416645
 30
0.0
  0
VERTEX
  5
BD
  8
LAYER_01
 10
-62.33867405209779
 20
23.30735746557834
 30
0.0
  0
VERTEX
  5
BE
  8
LAYER_01
 10
-61.62303529272999
 20
24.37590554972432
 30
0.0
  0
VERTEX
  5
BF
  8
LAYER_01
 10
-60.88704269192272
 20
25.43028488424108
 30
0.0
  0
VERTEX
  5
C0
  8
LAYER_01
 10
-60.13205049329108
 20
26.46982076676533
 30
0.0
  0
VERTEX
  5
C1
  8
LAYER_01
 10
-59.35941294045017
 20
27.49383849493378
 30
0.0
  0
VERTEX
  5
C2
  8
LAYER_01
 10
-57.76661874660088
 20
29.49262067875009
 30
0.0
  0
VERTEX
  5
C3
  8
LAYER_01
 10
-56.11949405929559
 20
31.42123381678363
 30
0.0
  0
VERTEX
  5
C4
  8
LAYER_01
 10
-54.42887282745505
 20
33.27428029012804
 30
0.0
  0
VERTEX
  5
C5
  8
LAYER_01
 10
-52.705589
 20
35.04636247987696
 30
0.0
  0
VERTEX
  5
C6
  8
LAYER_01
 10
-35.04636100000002
 20
52.70559047987695
 30
0.0
 42
-0.1931898451321365
  0
VERTEX
  5
C7
  8
LAYER_01
 10
-31.69671942153357
 20
54.05000044953482
 30
0.0
  0
VERTEX
  5
C8
  8
LAYER_01
 10
31.69671942153361
 20
54.05000044953478
 30
0.0
 42
-0.1931898451321353
  0
VERTEX
  5
C9
  8
LAYER_01
 10
35.04636100000013
 20
52.70559047987695
 30
0.0
  0
VERTEX
  5
CA
  8
LAYER_01
 10
52.705589
 20
35.04636247987696
 30
0.0
  0
VERTEX
  5
CB
  8
LAYER_01
 10
54.42887282745507
 20
33.27428029012804
 30
0.0
  0
VERTEX
  5
CC
  8
LAYER_01
 10
56.1194940592956
 20
31.42123381678363
 30
0.0
  0
VERTEX
  5
CD
  8
LAYER_01
 10
57.76661874660088
 20
29.49262067875009
 30
0.0
  0
VERTEX
  5
CE
  8
LAYER_01
 10
59.35941294045018
 20
27.49383849493378
 30
0.0
  0
VERTEX
  5
CF
  8
LAYER_01
 10
60.13205049329109
 20
26.46982076676532
 30
0.0
  0
VERTEX
  5
D0
  8
LAYER_01
 10
60.88704269192272
 20
25.43028488424107
 30
0.0
  0
VERTEX
  5
D1
  8
LAYER_01
 10
61.62303529272999
 20
24.37590554972431
 30
0.0
  0
VERTEX
  5
D2
  8
LAYER_01
 10
62.33867405209779
 20
23.30735746557833
 30
0.0
  0
VERTEX
  5
D3
  8
LAYER_01
 10
63.03260472641103
 20
22.22531533416645
 30
0.0
  0
VERTEX
  5
D4
  8
LAYER_01
 10
63.70347307205461
 20
21.13045385785194
 30
0.0
  0
VERTEX
  5
D5
  8
LAYER_01
 10
64.34992484541345
 20
20.0234477389981
 30
0.0
  0
VERTEX
  5
D6
  8
LAYER_01
 10
64.97060580287248
 20
18.90497167996824
 30
0.0
  0
VERTEX
  5
D7
  8
LAYER_01
 10
65.56416170081658
 20
17.77570038312564
 30
0.0
  0
VERTEX
  5
D8
  8
LAYER_01
 10
66.12923829563064
 20
16.63630855083361
 30
0.0
  0
VERTEX
  5
D9
  8
LAYER_01
 10
66.6644813436996
 20
15.48747088545543
 30
0.0
  0
VERTEX
  5
DA
  8
LAYER_01
 10
67.16853660140833
 20
14.32986208935441
 30
0.0
  0
VERTEX
  5
DB
  8
LAYER_01
 10
67.6400498251418
 20
13.16415686489385
 30
0.0
  0
VERTEX
  5
DC
  8
LAYER_01
 10
68.07766677128484
 20
11.99102991443702
 30
0.0
  0
VERTEX
  5
DD
  8
LAYER_01
 10
68.48003319622242
 20
10.81115594034724
 30
0.0
  0
VERTEX
  5
DE
  8
LAYER_01
 10
68.8457948563394
 20
9.625209644987796
 30
0.0
  0
VERTEX
  5
DF
  8
LAYER_01
 10
69.17359750802072
 20
8.433865730721987
 30
0.0
  0
VERTEX
  5
E0
  8
LAYER_01
 10
69.46208690765127
 20
7.237798899913106
 30
0.0
  0
VERTEX
  5
E1
  8
LAYER_01
 10
69.70990881161597
 20
6.037683854924451
 30
0.0
  0
VERTEX
  5
E2
  8
LAYER_01
 10
69.91570897629973
 20
4.834195298119317
 30
0.0
  0
VERTEX
  5
E3
  8
LAYER_01
 10
70.00242770528152
 20
4.231396797274099
 30
0.0
  0
VERTEX
  5
E4
  8
LAYER_01
 10
70.07813315808744
 20
3.628007931860999
 30
0.0
  0
VERTEX
  5
E5
  8
LAYER_01
 10
70.14265605426557
 20
3.024113039675427
 30
0.0
  0
VERTEX
  5
E6
  8
LAYER_01
 10
70.19582711336402
 20
2.419796458512796
 30
0.0
  0
VERTEX
  5
E7
  8
LAYER_01
 10
70.2374770549309
 20
1.815142526168515
 30
0.0
  0
VERTEX
  5
E8
  8
LAYER_01
 10
70.26743659851435
 20
1.210235580437999
 30
0.0
  0
VERTEX
  5
E9
  8
LAYER_01
 10
70.28553646366248
 20
0.6051599591166595
 30
0.0
  0
VERTEX
  5
EA
  8
LAYER_01
 10
70.29160736992338
 20
-0.0000000000000924
 30
0.0
  0
VERTEX
  5
EB
  8
LAYER_01
 10
70.28553646366248
 20
-0.6051599591168373
 30
0.0
  0
VERTEX
  5
EC
  8
LAYER_01
 10
70.26743659851435
 20
-1.210235580438177
 30
0.0
  0
VERTEX
  5
ED
  8
LAYER_01
 10
70.2374770549309
 20
-1.815142526168693
 30
0.0
  0
VERTEX
  5
EE
  8
LAYER_01
 10
70.19582711336402
 20
-2.419796458512973
 30
0.0
  0
VERTEX
  5
EF
  8
LAYER_01
 10
70.14265605426557
 20
-3.024113039675605
 30
0.0
  0
VERTEX
  5
F0
  8
LAYER_01
 10
70.07813315808744
 20
-3.628007931861177
 30
0.0
  0
VERTEX
  5
F1
  8
LAYER_01
 10
70.00242770528152
 20
-4.231396797274277
 30
0.0
  0
VERTEX
  5
F2
  8
LAYER_01
 10
69.91570897629973
 20
-4.834195298119495
 30
0.0
  0
VERTEX
  5
F3
  8
LAYER_01
 10
69.70990881161597
 20
-6.037683854924628
 30
0.0
  0
VERTEX
  5
F4
  8
LAYER_01
 10
69.46208690765127
 20
-7.237798899913283
 30
0.0
  0
VERTEX
  5
F5
  8
LAYER_01
 10
69.17359750802072
 20
-8.433865730722163
 30
0.0
  0
VERTEX
  5
F6
  8
LAYER_01
 10
68.8457948563394
 20
-9.625209644987972
 30
0.0
  0
VERTEX
  5
F7
  8
LAYER_01
 10
68.48003319622242
 20
-10.81115594034742
 30
0.0
  0
VERTEX
  5
F8
  8
LAYER_01
 10
68.07766677128484
 20
-11.9910299144372
 30
0.0
  0
VERTEX
  5
F9
  8
LAYER_01
 10
67.6400498251418
 20
-13.16415686489402
 30
0.0
  0
VERTEX
  5
FA
  8
LAYER_01
 10
67.16853660140833
 20
-14.32986208935458
 30
0.0
  0
VERTEX
  5
FB
  8
LAYER_01
 10
66.6644813436996
 20
-15.4874708854556
 30
0.0
  0
VERTEX
  5
FC
  8
LAYER_01
 10
66.12923829563064
 20
-16.63630855083378
 30
0.0
  0
VERTEX
  5
FD
  8
LAYER_01
 10
65.56416170081658
 20
-17.77570038312581
 30
0.0
  0
VERTEX
  5
FE
  8
LAYER_01
 10
64.97060580287248
 20
-18.9049716799684
 30
0.0
  0
VERTEX
  5
FF
  8
LAYER_01
 10
64.34992484541345
 20
-20.02344773899827
 30
0.0
  0
VERTEX
  5
100
  8
LAYER_01
 10
63.70347307205461
 20
-21.1304538578521
 30
0.0
  0
VERTEX
  5
101
  8
LAYER_01
 10
63.03260472641103
 20
-22.22531533416661
 30
0.0
  0
VERTEX
  5
102
  8
LAYER_01
 10
62.33867405209779
 20
-23.3073574655785
 30
0.0
  0
VERTEX
  5
103
  8
LAYER_01
 10
61.62303529272999
 20
-24.37590554972447
 30
0.0
  0
VERTEX
  5
104
  8
LAYER_01
 10
60.88704269192272
 20
-25.43028488424123
 30
0.0
  0
VERTEX
  5
105
  8
LAYER_01
 10
60.13205049329109
 20
-26.46982076676549
 30
0.0
  0
VERTEX
  5
106
  8
LAYER_01
 10
59.35941294045018
 20
-27.49383849493394
 30
0.0
  0
VERTEX
  5
107
  8
LAYER_01
 10
57.76661874660088
 20
-29.49262067875025
 30
0.0
  0
VERTEX
  5
108
  8
LAYER_01
 10
56.1194940592956
 20
-31.42123381678379
 30
0.0
  0
VERTEX
  5
109
  8
LAYER_01
 10
54.42887282745507
 20
-33.27428029012821
 30
0.0
  0
VERTEX
  5
10A
  8
LAYER_01
 10
52.705589
 20
-35.04636247987713
 30
0.0
  0
VERTEX
  5
10B
  8
LAYER_01
 10
35.04636100000013
 20
-52.70559047987712
 30
0.0
 42
-0.1931898451320773
  0
SEQEND
  5
10C
  8
LAYER_01
  0
ENDSEC
  0
EOF
